SplineFontDB: 3.2
FontName: MFEKSans-Regular
FullName: MFEK Sans Regular
FamilyName: MFEK Sans
Weight: Regular
Copyright: 
Version: 0.1
ItalicAngle: -13
UnderlinePosition: -200
UnderlineWidth: 100
Ascent: 1600
Descent: 400
InvalidEm: 0
LayerCount: 2
Layer: 0 0 "Back" 1
Layer: 1 0 "Fore" 0
XUID: [1021 31 -699969567 16487490]
FSType: 0
OS2Version: 0
OS2_WeightWidthSlopeOnly: 0
OS2_UseTypoMetrics: 1
CreationTime: 1460762150
ModificationTime: 1696268802
PfmFamily: 33
TTFWeight: 400
TTFWidth: 5
LineGap: 0
VLineGap: 0
OS2TypoAscent: 2500
OS2TypoAOffset: 0
OS2TypoDescent: -850
OS2TypoDOffset: 0
OS2TypoLinegap: 0
OS2WinAscent: 2500
OS2WinAOffset: 0
OS2WinDescent: 850
OS2WinDOffset: 0
HheadAscent: 2500
HheadAOffset: 0
HheadDescent: -850
HheadDOffset: 0
OS2CapHeight: 1500
OS2XHeight: 1040
OS2FamilyClass: 2053
OS2Vendor: 'it* '
OS2UnicodeRanges: 00000001.00000000.00000000.00000000
Lookup: 258 0 0 "kerning yeah boi" { "say cheese" [300,0,4] } ['kern' ('DFLT' <'dflt' > 'grek' <'dflt' > 'latn' <'dflt' > ) ]
MarkAttachClasses: 1
DEI: 91125
KernClass2: 30 23 "say cheese"
 73 A Agrave Aacute Acircumflex Atilde Adieresis Aring Amacron Abreve Aogonek
 96 D O Ograve Oacute Ocircumflex Otilde Odieresis Oslash Dcaron Dcroat Omacron Obreve Ohungarumlaut
 81 E AE Egrave Eacute Ecircumflex Edieresis Emacron Ebreve Edotaccent Eogonek Ecaron
 1 F
 39 G Gcircumflex Gbreve Gdotaccent uni0122
 104 J U Ugrave Uacute Ucircumflex Udieresis IJ Jcircumflex Utilde Umacron Ubreve Uring Uhungarumlaut Uogonek
 11 K X uni0136
 23 L Lacute uni013B Lslash
 1 P
 1 Q
 23 R Racute uni0156 Rcaron
 36 S Sacute Scircumflex Scedilla Scaron
 21 T uni0162 Tcaron Tbar
 1 V
 53 W Wcircumflex Wgrave Wacute Wdieresis uni1E86 uni1E88
 30 Y Ycircumflex Ydieresis Ygrave
 26 Z Zacute Zdotaccent Zcaron
 73 a agrave aacute acircumflex atilde adieresis aring amacron abreve aogonek

StartChar: ampersand
Encoding: 38 38 0
Width: 1701
VWidth: 1920
Flags: HMW
LayerCount: 2
Fore
SplineSet
956 210 m 6
 576 734 l 6
 461 892 450 1000 476 1113 c 0
 515 1283 678 1435 1085 1435 c 0
 1422 1435 1592 1313 1548 1123 c 0
 1491 875 1055 697 803 596 c 0
 644 533 608 492 598 448 c 0
 593 427 600 410 604 398 c 2
 607 388 l 2
 614 370 643 355 678 355 c 4
 830 355 1091 421 1195 499 c 0
 1304 581 1391 648 1498 648 c 2
 1503 648 l 2
 1620 648 1672 577 1592 487 c 0
 1356 223 740 -35 432 -35 c 0
 216 -35 101 25 55 119 c 2
 16 199 l 2
 -23 277 -29 352 -7 448 c 0
 37 637 253 747 755 862 c 0
 932 903 1092 1032 1111 1113 c 0
 1116 1133 1096 1150 1059 1150 c 0
 1022 1150 1000 1132 993 1103 c 0
 982 1054 1031 963 1088 876 c 6
 1494 260 l 6
 1573 140 1489 -30 1282 -30 c 2
 1272 -30 l 2
 1095 -30 1043 90 956 210 c 6
EndSplineSet
EndChar

StartChar: period
Encoding: 46 46 1
Width: 740
VWidth: 1920
Flags: HMW
LayerCount: 2
Fore
SplineSet
315 -40 m 6
 285 -40 l 6
 118 -40 5 63 5 210 c 6
 5 250 l 6
 5 397 118 500 285 500 c 6
 315 500 l 6
 482 500 595 397 595 250 c 6
 595 210 l 6
 595 63 482 -40 315 -40 c 6
EndSplineSet
EndChar

StartChar: zero
Encoding: 48 48 2
Width: 1350
VWidth: 1920
Flags: HMW
LayerCount: 2
Fore
SplineSet
43 488 m 258
 141 913 l 258
 216 1239 484 1435 886 1435 c 256
 1288 1435 1466 1239 1391 913 c 258
 1293 488 l 258
 1218 162 948 -35 547 -35 c 256
 146 -35 -32 162 43 488 c 258
537 508 m 258
 503 360 521 305 625 305 c 256
 729 305 773 360 807 508 c 258
 896 893 l 258
 930 1041 912 1095 808 1095 c 256
 704 1095 660 1041 626 893 c 258
 537 508 l 258
EndSplineSet
EndChar

StartChar: one
Encoding: 49 49 3
Width: 640
VWidth: 1920
Flags: HMW
LayerCount: 2
Fore
SplineSet
346 1323 m 260
 408 1343 427 1353 474 1396 c 256
 523 1441 570 1450 617 1450 c 258
 621 1450 l 258
 718 1450 766 1387 734 1250 c 258
 498 230 l 258
 457 53 345 -30 198 -30 c 258
 188 -30 l 258
 41 -30 -33 53 8 230 c 258
 219 1144 l 258
 244 1251 287 1304 346 1323 c 260
EndSplineSet
EndChar

StartChar: two
Encoding: 50 50 4
Width: 1280
VWidth: 1920
Flags: HMW
LayerCount: 2
Fore
SplineSet
-33 160 m 262
 63 574 780 716 844 993 c 262
 845 998 l 262
 859 1058 818 1085 761 1085 c 260
 691 1085 656 1045 646 1002 c 262
 644 992 l 262
 619 885 527 822 380 822 c 262
 370 822 l 262
 223 822 149 885 183 1032 c 262
 188 1052 l 262
 240 1276 473 1435 870 1435 c 260
 1197 1435 1396 1303 1336 1043 c 262
 1325 998 l 262
 1229 582 613 531 578 380 c 262
 575 370 l 261
 955 370 l 262
 1132 370 1208 337 1174 190 c 262
 1172 180 l 262
 1138 33 1047 0 870 0 c 262
 110 0 l 262
 -17 0 -59 48 -34 155 c 262
 -33 160 l 262
EndSplineSet
EndChar

StartChar: three
Encoding: 51 51 5
Width: 1300
VWidth: 1920
Flags: HMW
LayerCount: 2
Fore
SplineSet
313 577 m 262
 323 577 l 262
 470 577 516 504 494 407 c 262
 492 397 l 262
 483 357 514 315 593 315 c 260
 680 315 736 352 752 422 c 262
 758 447 l 262
 774 517 736 560 639 560 c 262
 619 560 l 262
 512 560 487 633 509 730 c 262
 511 740 l 262
 533 837 592 910 699 910 c 262
 700 910 l 262
 767 910 815 933 829 993 c 262
 833 1008 l 262
 842 1048 826 1085 759 1085 c 260
 699 1085 671 1065 663 1032 c 262
 661 1022 l 262
 641 935 555 902 428 902 c 262
 418 902 l 262
 251 902 178 965 205 1082 c 262
 209 1102 l 262
 247 1266 508 1435 855 1435 c 260
 1202 1435 1398 1313 1345 1083 c 262
 1339 1058 l 262
 1281 808 1013 720 756 720 c 261
 788 770 l 261
 1045 770 1300 672 1242 422 c 262
 1225 347 l 262
 1170 107 899 -35 502 -35 c 260
 150 -35 -43 119 17 377 c 262
 19 387 l 262
 44 494 126 577 313 577 c 262
EndSplineSet
EndChar

StartChar: four
Encoding: 52 52 6
Width: 1310
VWidth: 1920
Flags: HMW
LayerCount: 2
Fore
SplineSet
1315 410 m 262
 1312 400 l 262
 1285 283 1210 230 1073 230 c 262
 1053 230 l 261
 1046 200 l 262
 1014 63 900 -30 753 -30 c 262
 743 -30 l 262
 596 -30 524 63 556 200 c 262
 563 230 l 261
 183 230 l 262
 6 230 -51 343 -12 510 c 262
 -12 512 l 262
 20 649 83 726 226 860 c 262
 617 1227 l 262
 743 1345 871 1420 1048 1420 c 262
 1058 1420 l 262
 1235 1420 1297 1287 1263 1140 c 262
 1134 580 l 261
 1154 580 l 262
 1291 580 1342 527 1315 410 c 262
654 580 m 261
 751 1001 l 261
 319 580 l 261
 654 580 l 261
EndSplineSet
EndChar

StartChar: five
Encoding: 53 53 7
Width: 1300
VWidth: 1920
Flags: HMW
LayerCount: 2
Fore
SplineSet
288 448 m 262
 293 448 l 262
 450 448 461 394 501 349 c 260
 518 330 548 305 595 305 c 260
 664 305 722 355 743 448 c 262
 749 473 l 262
 772 573 749 605 685 605 c 260
 634 605 586 556 571 543 c 260
 532 507 481 473 354 473 c 262
 264 473 l 262
 147 473 100 568 162 743 c 262
 301 1140 l 262
 362 1313 477 1400 654 1400 c 262
 1144 1400 l 262
 1341 1400 1402 1347 1380 1250 c 262
 1378 1245 l 262
 1350 1125 1243 1050 1043 1050 c 262
 678 1050 l 261
 544 745 l 261
 521 745 l 261
 604 868 800 955 960 955 c 260
 1200 955 1323 840 1248 513 c 262
 1233 448 l 262
 1158 121 917 -35 507 -35 c 260
 173 -35 11 99 28 248 c 260
 43 384 151 448 288 448 c 262
EndSplineSet
EndChar

StartChar: six
Encoding: 54 54 8
Width: 1429
VWidth: 1920
Flags: HMW
LayerCount: 2
Fore
SplineSet
758 640 m 260
 648 640 575 585 556 502 c 262
 542 442 l 261
 471 522 l 261
 532 786 688 890 985 890 c 260
 1312 890 1418 731 1355 457 c 262
 1343 407 l 262
 1279 129 993 -35 601 -35 c 260
 124 -35 -6 167 77 527 c 262
 150 843 l 262
 238 1223 504 1435 931 1435 c 260
 1338 1435 1451 1268 1418 1124 c 262
 1418 1122 l 262
 1389 995 1258 942 1161 942 c 262
 1151 942 l 262
 1004 942 947 985 960 1042 c 262
 960 1044 l 262
 968 1077 940 1085 870 1085 c 260
 743 1085 668 988 633 838 c 262
 547 462 l 262
 526 372 565 315 672 315 c 260
 791 315 847 377 865 457 c 262
 869 477 l 262
 888 560 868 640 758 640 c 260
EndSplineSet
EndChar

StartChar: seven
Encoding: 55 55 9
Width: 1195
VWidth: 1920
Flags: HMW
LayerCount: 2
Fore
SplineSet
1302 1060 m 262
 895 330 l 262
 779 121 680 -30 483 -30 c 262
 473 -30 l 262
 266 -30 229 167 375 350 c 262
 854 950 l 261
 444 950 l 262
 217 950 161 1023 195 1170 c 262
 197 1180 l 262
 231 1327 321 1400 548 1400 c 262
 1108 1400 l 262
 1375 1400 1432 1294 1302 1060 c 262
EndSplineSet
EndChar

StartChar: eight
Encoding: 56 56 10
Width: 1382
VWidth: 1920
Flags: HMW
LayerCount: 2
Fore
SplineSet
643 310 m 256
 733 310 789 356 807 432 c 258
 808 437 l 258
 826 514 791 560 700 560 c 256
 609 560 554 514 536 437 c 258
 535 432 l 258
 517 356 553 310 643 310 c 256
781 910 m 256
 831 910 876 947 889 1003 c 258
 890 1008 l 258
 901 1055 871 1090 823 1090 c 256
 775 1090 729 1055 718 1008 c 258
 717 1003 l 258
 704 947 731 910 781 910 c 256
777 760 m 257
 1207 760 1341 624 1288 392 c 258
 1277 347 l 258
 1220 100 1021 -35 563 -35 c 256
 155 -35 -32 100 25 347 c 258
 36 392 l 258
 89 624 335 760 715 760 c 257
 708 720 l 257
 343 725 188 837 239 1058 c 258
 245 1083 l 258
 296 1304 534 1435 902 1435 c 256
 1320 1435 1448 1304 1397 1083 c 258
 1391 1058 l 258
 1340 837 1183 725 766 720 c 257
 777 760 l 257
EndSplineSet
EndChar

StartChar: nine
Encoding: 57 57 11
Width: 1429
VWidth: 1920
Flags: HMW
LayerCount: 2
Fore
SplineSet
754 760 m 260
 864 760 937 815 956 898 c 262
 970 958 l 261
 1042 878 l 261
 981 614 824 510 527 510 c 260
 200 510 95 669 158 943 c 262
 169 993 l 262
 233 1271 519 1435 911 1435 c 260
 1388 1435 1519 1233 1436 873 c 262
 1363 557 l 262
 1275 177 988 -35 561 -35 c 260
 74 -35 -10 132 19 256 c 262
 20 258 l 262
 49 385 144 458 301 458 c 262
 311 458 l 262
 458 458 496 415 483 358 c 262
 482 356 l 262
 474 323 542 315 612 315 c 260
 739 315 844 412 879 562 c 262
 966 938 l 262
 987 1028 947 1085 840 1085 c 260
 721 1085 666 1023 648 943 c 262
 643 923 l 262
 624 840 644 760 754 760 c 260
EndSplineSet
EndChar

StartChar: A
Encoding: 65 65 12
Width: 1400
VWidth: 1872
Flags: HMW
AnchorPoint: "top" 915 1400 basechar 0
AnchorPoint: "bottom" 543 0 basechar 0
AnchorPoint: "ogonek" 1048 0 basechar 0
LayerCount: 2
Fore
SplineSet
345 520 m 261
 975 520 l 261
 917 276 l 261
 287 276 l 261
 345 520 l 261
777 984 m 261
 361 195 l 262
 279 42 171 -35 70 -35 c 262
 40 -35 l 262
 -66 -35 -101 76 -32 195 c 262
 532 1190 l 262
 601 1309 731 1400 868 1400 c 262
 938 1400 l 262
 1077 1400 1168 1307 1182 1190 c 262
 1291 205 l 262
 1305 93 1255 -35 1112 -35 c 262
 1062 -35 l 262
 926 -35 847.400339359 84.9530432618 838 205 c 262
 777 984 l 261
EndSplineSet
EndChar

StartChar: B
Encoding: 66 66 13
Width: 1341
VWidth: 1872
Flags: HMW
AnchorPoint: "bottom" 555 0 basechar 0
AnchorPoint: "top" 847 1400 basechar 0
LayerCount: 2
Fore
SplineSet
619 836 m 261
 759 836 l 262
 836 836 875.1328125 882.15625 887 932 c 262
 893 959 l 262
 904.124716756 1009.0612254 893 1059 816 1059 c 262
 670 1059 l 261
 619 836 l 261
877 750 m 261
 1134 750 1357 652 1299 402 c 262
 1286 347 l 262
 1221 67 955 0 698 0 c 262
 208 0 l 262
 31 0 -33 83 8 260 c 262
 211 1140 l 262
 252 1317 354 1400 531 1400 c 262
 1001 1400 l 262
 1258 1400 1462 1313 1404 1063 c 262
 1399 1038 l 262
 1341 788 1103 700 846 700 c 261
 877 750 l 261
745 593 m 262
 563 593 l 261
 505 341 l 261
 687 341 l 262
 771 341 810.387640449 396.679775281 822 447 c 262
 831 486 l 262
 842.511235955 535.882022472 828 593 745 593 c 262
EndSplineSet
EndChar

StartChar: C
Encoding: 67 67 14
Width: 1396
VWidth: 1872
Flags: HMW
AnchorPoint: "bottom" 615 0 basechar 0
AnchorPoint: "top" 957 1400 basechar 0
LayerCount: 2
Fore
SplineSet
1365 528 m 4
 1362.36328125 493.92578125 1344 451 1308 384 c 4
 1180 147 949 -34 593 -34 c 4
 120 -34 -17 232 69 605 c 6
 113 796 l 6
 199 1168 460 1434 933 1434 c 4
 1280 1434 1440 1286 1440 1076 c 4
 1440 1013.60644531 1430.88424152 985.793630681 1417 943 c 4
 1392.82598271 868.49150299 1344 833 1227 833 c 6
 1216 833 l 6
 1109 833 1030.22363281 867.282226562 1051 943 c 4
 1068.92773438 1008.33398438 1047 1101 905 1101 c 4
 764 1101 649 1011 602 806 c 6
 553 593 l 6
 504 379 569 299 729 299 c 4
 889 299 967.340030293 398.731045112 1014 528 c 4
 1037.43620773 592.92876225 1088 638 1195 638 c 6
 1207 638 l 6
 1314 638 1370.33105469 596.8828125 1365 528 c 4
EndSplineSet
EndChar

StartChar: D
Encoding: 68 68 15
Width: 1389
VWidth: 1872
Flags: HMW
AnchorPoint: "bottom" 505 0 basechar 0
AnchorPoint: "top" 857 1400 basechar 0
LayerCount: 2
Fore
SplineSet
564 0 m 262
 199 0 l 262
 22 0 -30 93 9 260 c 262
 212 1140 l 262
 255 1327 345 1400 522 1400 c 262
 887 1400 l 262
 1301 1400 1489 1169 1400 783 c 262
 1362 618 l 262
 1273 232 1018 0 564 0 c 262
610 341 m 262
 764 341 834 440 873 608 c 262
 916 793 l 262
 955 961 929 1059 775 1059 c 262
 670 1059 l 261
 505 341 l 261
 610 341 l 262
EndSplineSet
EndChar

StartChar: E
Encoding: 69 69 16
Width: 1266
VWidth: 1872
Flags: HMW
AnchorPoint: "bottom" 565 0 basechar 0
AnchorPoint: "top" 887 1400 basechar 0
AnchorPoint: "ogonek" 980 0 basechar 0
LayerCount: 2
Fore
SplineSet
619 836 m 261
 910 836 l 262
 1017 836 1042 807 1022 720 c 262
 1020 710 l 262
 1000 623 959 593 852 593 c 262
 563 593 l 261
 505 341 l 261
 1067 341 l 262
 1204 341 1240 277 1220 190 c 262
 1213 160 l 262
 1193 73 1123 0 986 0 c 262
 208 0 l 262
 31 0 -33 83 8 260 c 262
 213 1150 l 262
 254 1327 354 1400 531 1400 c 262
 1289 1400 l 262
 1426 1400 1462 1327 1442 1240 c 262
 1435 1210 l 262
 1415 1123 1345 1059 1208 1059 c 262
 670 1059 l 261
 619 836 l 261
EndSplineSet
EndChar

StartChar: F
Encoding: 70 70 17
Width: 1180
VWidth: 1872
Flags: HMW
AnchorPoint: "bottom" 525 0 basechar 0
AnchorPoint: "top" 847 1400 basechar 0
LayerCount: 2
Fore
SplineSet
608 789 m 261
 868 789 l 262
 987 789 1041 759 1021 670 c 262
 1018 660 l 262
 998 571 930 546 811 546 c 262
 552 546 l 261
 470 190 l 262
 433 31 360 -30 201 -30 c 262
 161 -30 l 262
 2 -30 -45 31 -8 190 c 262
 211 1140 l 262
 252 1317 354 1400 531 1400 c 262
 1249 1400 l 262
 1366 1400 1410 1317 1390 1230 c 262
 1388 1220 l 262
 1368 1133 1287 1059 1170 1059 c 262
 670 1059 l 261
 608 789 l 261
EndSplineSet
EndChar

StartChar: G
Encoding: 71 71 18
Width: 1439
VWidth: 1872
Flags: HMW
AnchorPoint: "bottom" 625 0 basechar 0
AnchorPoint: "top" 947 1400 basechar 0
LayerCount: 2
Fore
SplineSet
772 625 m 262
 778 650 l 262
 796 727 856 757 993 757 c 262
 1238 757 l 262
 1365 757 1416 687 1387 560 c 262
 1288 130 l 262
 1261.10996862 13.2049142018 1222 -30 1155 -30 c 262
 1146 -30 l 262
 1079 -30 1051.75538144 19.9960965123 1050 130 c 262
 1047 318 l 261
 1300 620 l 261
 1190 230 890 -35 573 -35 c 260
 106 -35 -17 238 71 618 c 262
 110 783 l 262
 198 1163 455 1435 942 1435 c 260
 1199 1435 1332 1325 1393 1198 c 4
 1419 1143 1433 1086 1435 1033 c 260
 1441 888 1353 823 1253 823 c 262
 1233 823 l 262
 1137 823 1079 877 1073 963 c 260
 1067 1044 1011 1102 904 1102 c 260
 757 1102 647 1003 599 793 c 262
 556 608 l 262
 505 388 554 298 731 298 c 260
 869 298 976 413 1034 615 c 261
 1123 518 l 261
 937 518 l 262
 800 518 754 548 772 625 c 262
EndSplineSet
EndChar

StartChar: H
Encoding: 72 72 19
Width: 1379
VWidth: 1872
Flags: HMW
AnchorPoint: "bottom" 585 0 basechar 0
AnchorPoint: "top" 907 1400 basechar 0
LayerCount: 2
Fore
SplineSet
1264 1430 m 262
 1274 1430 l 262
 1431 1430 1500 1337 1461 1170 c 262
 1244 230 l 262
 1205 63 1124 -30 967 -30 c 262
 957 -30 l 262
 800 -30 728 63 767 230 c 262
 839 540 l 261
 551 540 l 261
 479 230 l 262
 440 63 358 -30 201 -30 c 262
 191 -30 l 262
 34 -30 -38 63 1 230 c 262
 218 1170 l 262
 257 1337 351 1430 508 1430 c 262
 518 1430 l 262
 675 1430 735 1337 696 1170 c 262
 631 890 l 261
 919 890 l 261
 984 1170 l 262
 1023 1337 1107 1430 1264 1430 c 262
EndSplineSet
EndChar

StartChar: I
Encoding: 73 73 20
Width: 614
VWidth: 1872
Flags: HMW
AnchorPoint: "bottom" 200 0 basechar 0
AnchorPoint: "top" 522 1400 basechar 0
AnchorPoint: "ogonek" 200 0 basechar 0
LayerCount: 2
Fore
SplineSet
498 1430 m 262
 508 1430 l 262
 655 1430 737 1347 696 1170 c 262
 479 230 l 262
 438 53 358 -30 211 -30 c 262
 201 -30 l 262
 54 -30 -40 53 1 230 c 262
 218 1170 l 262
 259 1347 351 1430 498 1430 c 262
EndSplineSet
EndChar

StartChar: J
Encoding: 74 74 21
Width: 1084
VWidth: 1872
Flags: HMW
AnchorPoint: "bottom" 337 0 basechar 0
AnchorPoint: "top" 1059 1400 basechar 0
LayerCount: 2
Fore
SplineSet
931 1430 m 2
 939 1430 l 2
 1096 1430 1209.03534768 1358.00101145 1168 1180 c 2
 1017 525 l 2
 930 149 804 -34 391 -34 c 0
 46 -34 -69.6826171875 164.5390625 48 466 c 2
 70 523 l 2
 116.280739352 642.90918832 185 693 272 693 c 2
 277 693 l 2
 384 693 429.935019455 624.260311284 389 523 c 2
 370 476 l 2
 327.831427 370.875529282 350 317 410 317 c 0
 471 317 491 359 522 495 c 2
 680 1180 l 2
 721.055017412 1357.99168941 824 1430 931 1430 c 2
EndSplineSet
EndChar

StartChar: K
Encoding: 75 75 22
Width: 1418
VWidth: 1872
Flags: HMW
AnchorPoint: "bottom" 525 0 basechar 0
AnchorPoint: "top" 847 1400 basechar 0
LayerCount: 2
Fore
SplineSet
496 1430 m 262
 506 1430 l 262
 653 1430 737 1347 696 1170 c 262
 479 230 l 262
 438 53 346 -30 199 -30 c 262
 189 -30 l 262
 42 -30 -40 53 1 230 c 262
 218 1170 l 262
 259 1347 349 1430 496 1430 c 262
581 714 m 261
 969 956 l 261
 1253 316 l 262
 1336 139 1196 -30 1039 -30 c 262
 1029 -30 l 262
 872 -30 793 63 750 190 c 270
 581 714 l 261
1044 1270 m 262
 1120.8176 1341.1968 1191 1430 1306 1430 c 262
 1320 1430 l 262
 1483 1430 1526.17355618 1268.68236845 1373 1137 c 262
 981 800 l 5
 788 639 l 5
 495 384 l 261
 224 510 l 261
 1044 1270 l 262
EndSplineSet
EndChar

StartChar: L
Encoding: 76 76 23
Width: 1101
VWidth: 1872
Flags: HMW
AnchorPoint: "bottom" 525 0 basechar 0
AnchorPoint: "top" 487 1400 basechar 0
LayerCount: 2
Fore
SplineSet
488 1430 m 262
 498 1430 l 262
 645 1430 737 1347 694 1160 c 262
 505 341 l 261
 828 341 l 262
 1005 341 1080 287 1080 180 c 262
 1080 170 l 262
 1080 63 1007 0 830 0 c 262
 228 0 l 262
 41 0 -30 93 13 280 c 262
 216 1160 l 262
 259 1347 341 1430 488 1430 c 262
EndSplineSet
EndChar

StartChar: M
Encoding: 77 77 24
Width: 1789
VWidth: 1872
Flags: HMW
AnchorPoint: "bottom" 745 0 basechar 0
AnchorPoint: "top" 1067 1400 basechar 0
LayerCount: 2
Fore
SplineSet
465 844 m 261
 314 190 l 262
 280 43 199 -30 102 -30 c 262
 92 -30 l 262
 -5 -30 -61 43 -27 190 c 262
 194 1150 l 262
 233 1317 358 1410 565 1410 c 262
 585 1410 l 262
 802 1410 863 1326 880 1158 c 262
 924 687 l 261
 1193 1140 l 262
 1309 1331 1429 1415 1596 1415 c 262
 1656 1415 l 262
 1843 1415 1905 1317 1869 1160 c 262
 1654 230 l 262
 1615 63 1511 -30 1364 -30 c 262
 1354 -30 l 262
 1207 -30 1156 63 1195 230 c 262
 1337 844 l 261
 973 210 l 262
 895 79 847 9 730 9 c 262
 728 9 l 262
 614 9 569 81 550 210 c 262
 465 844 l 261
EndSplineSet
EndChar

StartChar: N
Encoding: 78 78 25
Width: 1340
VWidth: 1872
Flags: HMW
AnchorPoint: "bottom" 565 0 basechar 0
AnchorPoint: "top" 897 1400 basechar 0
LayerCount: 2
Fore
SplineSet
1289 1430 m 262
 1299 1430 l 262
 1446 1430 1483 1347 1447 1190 c 262
 1211 170 l 262
 1177 23 1092 -30 970 -30 c 262
 903 -30 l 262
 766 -30 667 50 641 180 c 262
 487 957 l 5
 511 957 l 261
 343 230 l 262
 304 63 259 -30 112 -30 c 262
 102 -30 l 262
 -45 -30 -57 63 -18 230 c 262
 194 1150 l 262
 235 1327 360 1420 517 1420 c 262
 627 1420 l 262
 800 1420 859 1342 882 1160 c 262
 970 594 l 5
 948 594 l 261
 1086 1190 l 262
 1122 1347 1142 1430 1289 1430 c 262
EndSplineSet
EndChar

StartChar: O
Encoding: 79 79 26
Width: 1541
VWidth: 1872
Flags: HMW
AnchorPoint: "bottom" 675 0 basechar 0
AnchorPoint: "top" 997 1400 basechar 0
LayerCount: 2
Fore
SplineSet
69 605 m 2
 113 796 l 2
 200 1174 512 1434 982 1434 c 0
 1452 1434 1644 1174 1557 796 c 2
 1513 605 l 2
 1426 227 1112 -34 643 -34 c 0
 174 -34 -18 227 69 605 c 2
552 591 m 2
 507 398 563 297 720 297 c 0
 877 297 977 398 1022 591 c 2
 1073 810 l 2
 1117 1002 1063 1103 906 1103 c 0
 749 1103 647 1002 603 810 c 2
 552 591 l 2
EndSplineSet
EndChar

StartChar: P
Encoding: 80 80 27
Width: 1292
VWidth: 1872
Flags: HMW
AnchorPoint: "bottom" 155 0 basechar 0
AnchorPoint: "top" 827 1400 basechar 0
LayerCount: 2
Fore
SplineSet
670 1059 m 261
 599 749 l 261
 704 749 l 262
 821 749 865 798 886 888 c 262
 892 912 l 262
 913 1002 897 1059 780 1059 c 262
 670 1059 l 261
901 1400 m 262
 1288 1400 1408 1252 1346 982 c 262
 1331 918 l 262
 1269 648 1077 505 690 505 c 262
 543 505 l 261
 479 230 l 262
 440 63 338 -30 191 -30 c 262
 181 -30 l 262
 34 -30 -38 63 1 230 c 262
 204 1110 l 262
 247 1297 374 1400 561 1400 c 262
 901 1400 l 262
EndSplineSet
EndChar

StartChar: Q
Encoding: 81 81 28
Width: 1610
VWidth: 1872
Flags: HMW
AnchorPoint: "bottom" 645 0 basechar 0
AnchorPoint: "top" 967 1400 basechar 0
LayerCount: 2
Fore
SplineSet
1562 216 m 258
 1561 210 l 258
 1537.94594595 71.6756756757 1448.94264991 12.518548115 1311 -3 c 256
 1151 -21 1024 84 1085 349 c 257
 1244 573 l 1
 1165 232 1056 -34 593 -34 c 0
 129 -34 6 252 85 593 c 2
 135 808 l 2
 214 1149 478 1434 953 1434 c 0
 1428 1434 1561.94569434 1149.01241272 1484 808 c 2
 1436 598 l 2
 1410 484 1444.87944819 449.530137953 1483 440 c 256
 1579 416 1584.18918919 349.135135135 1562 216 c 258
946 591 m 2
 997 810 l 2
 1035 975 1028 1103 877 1103 c 0
 726 1103 660 975 622 810 c 2
 571 591 l 2
 531 417 540 297 691 297 c 0
 842 297 906 417 946 591 c 2
EndSplineSet
EndChar

StartChar: R
Encoding: 82 82 29
Width: 1371
VWidth: 1872
Flags: HMW
AnchorPoint: "bottom" 555 0 basechar 0
AnchorPoint: "top" 877 1400 basechar 0
LayerCount: 2
Fore
SplineSet
670 1059 m 261
 597 739 l 261
 694 739 l 262
 821 739 854.529411765 803.117647059 877 893 c 262
 878 897 l 262
 898.117647059 977.470588235 895 1059 768 1059 c 262
 670 1059 l 261
940 1400 m 262
 1347 1400 1439 1212 1386 982 c 262
 1380 958 l 262
 1325 718 1080 583 753 583 c 261
 766 642 l 261
 1123 642 1309 612 1254 372 c 262
 1251 358 l 262
 1239 304 1241 260 1244 228 c 260
 1246 202 1252 156 1240 103 c 262
 1239 98 l 262
 1219 12 1153 -30 1006 -30 c 262
 976 -30 l 262
 824 -30 742 1 733 139 c 260
 730 193 727 241 747 328 c 262
 757 372 l 262
 775 452 766 495 659 495 c 262
 540 495 l 261
 481 240 l 262
 440 63 348 -30 191 -30 c 262
 181 -30 l 262
 24 -30 -38 63 3 240 c 262
 200 1090 l 262
 248 1297 374 1400 581 1400 c 262
 940 1400 l 262
EndSplineSet
EndChar

StartChar: S
Encoding: 83 83 30
Width: 1315
VWidth: 1872
Flags: HMW
AnchorPoint: "bottom" 534 0 basechar 0
AnchorPoint: "top" 856 1400 basechar 0
LayerCount: 2
Fore
SplineSet
201 528 m 262
 211 528 l 262
 283 528 319 499 335 470 c 4
 352 440 353 404 357 383 c 260
 367 332 389 279 609 279 c 260
 757 279 812.151219002 322.96341251 822 364 c 260
 834 414 775 434 658 463 c 4
 428 519 82 588 173 983 c 260
 235.192382812 1252.95605469 478 1435 890 1435 c 260
 1240 1435 1371.61723048 1249.78153652 1346 1079 c 6
 1343 1059 l 262
 1326 992 1265 913 1140 913 c 262
 1130 913 l 262
 1030 913 995 957 993 1006 c 4
 992 1028 992 1035 988 1055 c 4
 980 1095 907 1142 801 1142 c 260
 689 1142 617.945243147 1093.22279343 610 1053 c 260
 594 972 692 943 833 913 c 4
 1066.44824219 863.330078125 1341 749 1268 428 c 260
 1198.1251194 120.74196339 930 -35 491 -35 c 260
 103 -35 -64 145 -12 370 c 262
 -8 384 l 6
 12 471 108 528 201 528 c 262
EndSplineSet
EndChar

StartChar: T
Encoding: 84 84 31
Width: 1309
VWidth: 1872
Flags: HMW
AnchorPoint: "bottom" 515 0 basechar 0
AnchorPoint: "top" 877 1400 basechar 0
LayerCount: 2
Fore
SplineSet
389 1400 m 262
 1239 1400 l 262
 1416 1400 1489 1337 1489 1230 c 262
 1489 1220 l 262
 1489 1113 1416 1050 1239 1050 c 262
 1016 1050 l 261
 827 230 l 262
 786 53 696 -30 549 -30 c 262
 539 -30 l 262
 392 -30 308 53 349 230 c 262
 538 1050 l 261
 389 1050 l 262
 212 1050 139 1113 139 1220 c 262
 139 1230 l 262
 139 1337 212 1400 389 1400 c 262
EndSplineSet
EndChar

StartChar: U
Encoding: 85 85 32
Width: 1329
VWidth: 1872
Flags: HMW
AnchorPoint: "bottom" 580 0 basechar 0
AnchorPoint: "top" 902 1400 basechar 0
AnchorPoint: "ogonek" 675 0 basechar 0
LayerCount: 2
Fore
SplineSet
935 588 m 262
 1069 1170 l 262
 1110 1347 1157 1430 1274 1430 c 262
 1276 1430 l 262
 1393 1430 1471 1347 1430 1170 c 262
 1275 498 l 262
 1198 178 1114 -35 617 -35 c 260
 80 -35 -14 208 74 588 c 262
 208 1170 l 262
 249 1347 346 1430 493 1430 c 262
 503 1430 l 262
 650 1430 737 1347 696 1170 c 262
 578 658 l 262
 520 408 524 297 691 297 c 260
 818 297 887 378 935 588 c 262
EndSplineSet
EndChar

StartChar: V
Encoding: 86 86 33
Width: 1400
VWidth: 1872
Flags: HMW
AnchorPoint: "bottom" 662 0 basechar 0
AnchorPoint: "top" 954 1400 basechar 0
LayerCount: 2
Fore
SplineSet
707 416 m 261
 1096 1155 l 262
 1203 1355 1247 1435 1377 1435 c 262
 1387 1435 l 262
 1527 1435 1590 1332 1488 1155 c 262
 981 260 l 262
 880.554895026 82.6856628175 782 0 592 0 c 262
 582 0 l 262
 392 0 315.29198684 83.8129773299 296 260 c 262
 198 1155 l 262
 178 1314 254 1435 424 1435 c 262
 434 1435 l 262
 594 1435 636 1317 651 1155 c 262
 707 416 l 261
EndSplineSet
EndChar

StartChar: W
Encoding: 87 87 34
Width: 1783
VWidth: 1872
Flags: HMW
AnchorPoint: "bottom" 813 0 basechar 0
AnchorPoint: "top" 1135 1400 basechar 0
LayerCount: 2
Fore
SplineSet
599 680 m 261
 869 1220 l 262
 937.2 1356.4 1044 1430 1141 1430 c 262
 1161 1430 l 262
 1298 1430 1323.41777722 1328.0199293 1329 1211 c 262
 1356 645 l 261
 1579 1170 l 262
 1656 1349 1731 1430 1838 1430 c 262
 1843 1430 l 262
 1970 1430 2019 1336 1937 1160 c 262
 1507 230 l 262
 1429 62 1341 -30 1184 -30 c 262
 1174 -30 l 262
 1017 -30 941 71 930 235 c 262
 908 656 l 261
 678 230 l 262
 593 78 521 -30 374 -30 c 262
 339 -30 l 262
 192 -30 150 61 150 230 c 262
 156 1160 l 262
 156 1326 284 1430 431 1430 c 262
 436 1430 l 262
 593 1430 635.560725828 1329.96845917 626 1160 c 262
 599 680 l 261
EndSplineSet
EndChar

StartChar: X
Encoding: 88 88 35
Width: 1392
VWidth: 1872
Flags: HMW
AnchorPoint: "bottom" 612 0 basechar 0
AnchorPoint: "top" 934 1400 basechar 0
LayerCount: 2
Fore
SplineSet
1244 1430 m 262
 1249 1430 l 262
 1400 1430 1521.68011745 1324.33099946 1374 1161 c 262
 1006 754 l 261
 1167 360 l 262
 1255.42968584 143.594433411 1147 -30 970 -30 c 262
 965 -30 l 262
 798 -30 692.448722986 79.3343811395 658 220 c 262
 622 367 l 261
 510 230 l 262
 383.753648644 75.5736595024 239 -69 92 -69 c 262
 87 -69 l 262
 -60 -69 -105 71 41 205 c 262
 494 660 l 261
 334 1051 l 262
 248.980306027 1258.76687715 370 1430 547 1430 c 262
 572 1430 l 262
 705 1430 817.501429752 1333.35909004 841 1180 c 262
 860 1056 l 261
 962 1199 l 262
 1051.57274819 1324.57748031 1097 1430 1244 1430 c 262
EndSplineSet
EndChar

StartChar: Y
Encoding: 89 89 36
Width: 1447
VWidth: 1872
Flags: HMW
AnchorPoint: "bottom" 630 0 basechar 0
AnchorPoint: "top" 982 1400 basechar 0
LayerCount: 2
Fore
SplineSet
1369 1430 m 262
 1371 1430 l 262
 1508 1430 1596.94205809 1326.70602762 1470 1170 c 262
 971 554 l 261
 898 239 l 262
 857 62 755 -30 608 -30 c 262
 598 -30 l 262
 451 -30 379 63 420 240 c 262
 493 554 l 261
 292 1132 l 262
 234.135981414 1298.39503852 398 1430 555 1430 c 262
 570 1430 l 262
 707 1430 766.986182797 1373.26190428 813 1200 c 262
 894 895 l 261
 1115 1200 l 262
 1235.26745661 1365.97997406 1298 1430 1369 1430 c 262
EndSplineSet
EndChar

StartChar: Z
Encoding: 90 90 37
Width: 1233
VWidth: 1872
Flags: HMW
AnchorPoint: "bottom" 548 0 basechar 0
AnchorPoint: "top" 870 1400 basechar 0
LayerCount: 2
Fore
SplineSet
42 275 m 262
 715 1059 l 261
 415 1059 l 262
 268 1059 202 1123 224 1220 c 262
 227 1230 l 262
 249 1327 349 1400 496 1400 c 262
 1206 1400 l 262
 1393 1400 1346.08459675 1247.9405045 1219 1100 c 262
 567 341 l 261
 973 341 l 262
 1130 341 1201 297 1174 180 c 262
 1172 170 l 262
 1145 53 1050 0 893 0 c 262
 63 0 l 262
 -84 0 -86.8678203609 124.877605999 42 275 c 262
EndSplineSet
EndChar

StartChar: a
Encoding: 97 97 38
Width: 1273
VWidth: 1872
Flags: HMW
AnchorPoint: "bottom" 511 0 basechar 0
AnchorPoint: "top" 782 1050 basechar 0
AnchorPoint: "ogonek" 916 0 basechar 0
LayerCount: 2
Fore
SplineSet
691 408 m 1
 626 125 547 -34 308 -34 c 0
 59 -34 -71 104 6 436 c 2
 47 614 l 2
 119 926 295 1084 594 1084 c 0
 863 1084 885 926 820 643 c 1
 721 575 l 1
 752 711 729 753 665 753 c 0
 591 753 545 702 520 595 c 2
 488 455 l 2
 463 348 486 297 560 297 c 0
 624 297 673 368 698 475 c 1
 691 408 l 1
1228 162 m 2
 1228 157 l 2
 1228 60 1141.59383454 -2.21581321698 1066 -17 c 0
 757.405201891 -77.3531116392 598 43 667 343 c 2
 757 730 l 1
 1030 985 l 2
 1088 1039 1137 1075 1194 1075 c 2
 1196 1075 l 2
 1275 1075 1303 1024 1266 865 c 2
 1152 371 l 2
 1134.0505618 293.219101124 1146.94598537 274 1166 265 c 0
 1216.63559383 241.082712575 1228 209 1228 162 c 2
EndSplineSet
EndChar

StartChar: b
Encoding: 98 98 39
Width: 1278
VWidth: 1872
Flags: HMW
LayerCount: 2
Fore
SplineSet
478 1480 m 262
 488 1480 l 262
 635 1480 729 1397 690 1230 c 262
 483 335 l 261
 194 65 l 262
 136.627160036 11.3990768503 97 -25 50 -25 c 262
 39 -25 l 262
 -38 -25 -60.8176594157 47.0354602098 -29 185 c 262
 212 1230 l 262
 251 1397 331 1480 478 1480 c 262
536 641 m 5
 601 924 702 1084 951 1084 c 4
 1210 1084 1353 946 1276 614 c 6
 1235 436 l 6
 1163 124 973 -34 664 -34 c 4
 385 -34 332 124 397 407 c 5
 516 475 l 5
 485 339 521 297 595 297 c 4
 679 297 736 348 761 455 c 6
 793 595 l 6
 818 702 784 753 700 753 c 4
 626 753 564 682 539 575 c 5
 536 641 l 5
EndSplineSet
EndChar

StartChar: c
Encoding: 99 99 40
Width: 1097
VWidth: 1872
Flags: HMW
AnchorPoint: "top" 756 1050 basechar 0
AnchorPoint: "bottom" 520 0 basechar 0
LayerCount: 2
Fore
SplineSet
1029 343 m 4
 1012 270 935 175 871 112 c 4
 794 36 651 -35 470 -35 c 260
 90 -35 -61 151 8 448 c 262
 44 603 l 262
 113 900 293 1085 673 1085 c 260
 933.58045566 1085 1106 984.484375 1106 814 c 4
 1106 755 1100 717 1093 688 c 4
 1073 600 992 583 923 583 c 262
 908 583 l 262
 811 583 793 616 793 640 c 260
 793 661 798 665 798 707 c 4
 798 764 750 799 686 799 c 260
 602 799 553 733 518 583 c 262
 491 468 l 262
 458 325 485 251 574 251 c 260
 612 251 654 268 681 294 c 4
 700 313 718 335 732 361 c 260
 769 432 825 468 912 468 c 262
 922 468 l 262
 998 468 1047 423 1029 343 c 4
EndSplineSet
EndChar

StartChar: d
Encoding: 100 100 41
Width: 1278
VWidth: 1872
Flags: HMW
LayerCount: 2
Fore
SplineSet
745 408 m 5
 680 125 579 -34 330 -34 c 4
 71 -34 -71 104 6 436 c 6
 47 614 l 6
 124 946 269 1084 528 1084 c 4
 777 1084 864 925 799 642 c 5
 765 575 l 5
 790 682 761 753 687 753 c 4
 603 753 545 702 520 595 c 6
 488 455 l 6
 463 348 498 297 582 297 c 4
 656 297 717 368 742 475 c 5
 745 408 l 5
1392 1220 m 262
 1163 230 l 262
 1124 63 1047 -30 900 -30 c 262
 895 -30 l 262
 748 -30 661 63 700 230 c 262
 702 240 l 261
 690 252 l 261
 914 1220 l 262
 953 1387 1037 1480 1184 1480 c 262
 1194 1480 l 262
 1341 1480 1431 1387 1392 1220 c 262
EndSplineSet
EndChar

StartChar: e
Encoding: 101 101 42
Width: 1223
VWidth: 1872
Flags: HMW
AnchorPoint: "top" 736 1050 basechar 0
AnchorPoint: "bottom" 513 0 basechar 0
AnchorPoint: "ogonek" 733 60 basechar 0
LayerCount: 2
Fore
SplineSet
1076 263 m 4
 1076 188.046875 1012 119 904 56 c 4
 811 2 701 -35 520 -35 c 260
 151 -35 -64 138 8 448 c 262
 44 603 l 262
 113 903 349 1085 726 1085 c 260
 1063 1085 1228 907 1229 724 c 260
 1229 694 1223 657 1220 643 c 260
 1182 478 1077 437 920 437 c 262
 279 437 l 261
 276 603 l 261
 757 603 l 261
 785 745 759 811 686 811 c 260
 609 811 557 753 529 633 c 262
 480 418 l 262
 445 268 476 239 553 239 c 260
 657 239 682 297 732 331 c 260
 792 372 834 388 921 388 c 262
 931 388 l 262
 1007 388 1076 332 1076 263 c 4
EndSplineSet
EndChar

StartChar: f
Encoding: 102 102 43
Width: 748
VWidth: 1872
Flags: HMW
LayerCount: 2
Fore
SplineSet
664 816 m 258
 274 816 l 258
 127 816 64 833 64 930 c 258
 64 940 l 258
 64 1037 127 1050 274 1050 c 258
 664 1050 l 258
 811 1050 874 1037 874 940 c 258
 874 930 l 258
 874 833 811 816 664 816 c 258
281 1188 m 262
 348.635459759 1480.20038514 705.424109712 1513.70730911 926 1442 c 4
 981.674299401 1423.90076807 1001 1377.71582031 1001 1341 c 6
 1001 1338 l 6
 1001 1230.98730469 942.035051704 1204.94681331 884 1226 c 4
 762.535268196 1270.06336514 751.776367188 1182.80761719 723 1058 c 262
 446 -140 l 6
 415.879853689 -270.266914372 342 -390 195 -390 c 6
 183 -390 l 6
 6 -390 -58.3095507385 -279.762486582 -26 -140 c 6
 281 1188 l 262
EndSplineSet
EndChar

StartChar: g
Encoding: 103 103 44
Width: 1234
VWidth: 1872
Flags: HMW
AnchorPoint: "top" 729 1100 basechar 0
LayerCount: 2
Fore
SplineSet
1364 1150 m 256
 1333.36218793 1094.94961358 1190 1033 837 1043 c 257
 814 1072 l 257
 863 1072 911 1108 947 1161 c 256
 1023.89550781 1274.20800781 1121 1300 1188 1300 c 258
 1198 1300 l 258
 1365 1300 1404.88947556 1223.47069775 1364 1150 c 256
757 332 m 2
 1068 332 1183 175 1133 -41 c 0
 1079 -276 850 -360 470 -360 c 2
 252 -360 l 2
 -69 -360 -203 -263 -167 -107 c 0
 -140 9 46 36 348 36 c 1
 413 8 l 1
 397 8 312 -9 298 -68 c 0
 282 -136 318 -165 434 -165 c 2
 448 -165 l 2
 564 -165 649 -136 663 -77 c 0
 674 -28 649 0 571 0 c 2
 286 0 l 2
 53 0 -103.691307338 120.677326766 -45 298 c 0
 2 440 179 502 413 502 c 1
 401 484 l 1
 343 484 293 452 282 406 c 0
 270 354 459 332 586 332 c 2
 757 332 l 2
791 726 m 2
 798 756 l 2
 808 801 794 840 725 840 c 0
 659 840 626 804 615 756 c 2
 608 726 l 2
 599 688 613 640 679 640 c 0
 748 640 780 680 791 726 c 2
1249 710 m 2
 1205 521 1011 397 653 397 c 0
 295 397 107 561 151 750 c 2
 156 774 l 2
 200 963 393 1084 751 1084 c 0
 1109 1084 1298 923 1254 734 c 2
 1249 710 l 2
EndSplineSet
EndChar

StartChar: h
Encoding: 104 104 45
Width: 1221
VWidth: 1872
Flags: HMW
AnchorPoint: "top" 507 1450 basechar 0
AnchorPoint: "bottom" 509 0 basechar 0
LayerCount: 2
Fore
SplineSet
467 1480 m 262
 477 1480 l 262
 624 1480 728 1397 687 1220 c 262
 458 230 l 262
 417 53 345 -30 198 -30 c 262
 188 -30 l 262
 41 -30 -60 53 -19 230 c 262
 210 1220 l 262
 251 1397 320 1480 467 1480 c 262
550 703 m 261
 605 943 733 1085 940 1085 c 260
 1167 1085 1281.56347948 972.86986617 1210 663 c 262
 1110 230 l 262
 1069 53 975 -30 828 -30 c 262
 818 -30 l 262
 671 -30 592 53 633 230 c 262
 722 613 l 262
 745 713 744 762 684 762 c 260
 627 762 562 683 514 473 c 261
 550 703 l 261
EndSplineSet
EndChar

StartChar: i
Encoding: 105 105 46
Width: 575
VWidth: 1872
Flags: HMW
AnchorPoint: "ogonek" 176 0 basechar 0
AnchorPoint: "bottom" 176 0 basechar 0
LayerCount: 2
Fore
SplineSet
680 1365 m 258
 680 1345 l 258
 680 1231 610 1160 490 1160 c 258
 480 1160 l 258
 360 1160 290 1231 290 1345 c 258
 290 1365 l 258
 290 1479 360 1550 480 1550 c 258
 490 1550 l 258
 610 1550 680 1479 680 1365 c 258
595 820 m 262
 459 230 l 262
 418 53 340 -30 193 -30 c 262
 183 -30 l 262
 36 -30 -58 53 -17 230 c 262
 119 820 l 262
 160 997 242 1080 389 1080 c 262
 399 1080 l 262
 546 1080 636 997 595 820 c 262
EndSplineSet
EndChar

StartChar: j
Encoding: 106 106 47
Width: 575
VWidth: 1872
Flags: HMW
LayerCount: 2
Fore
SplineSet
387 -55 m 6
 310.765625 -383.3203125 100 -430 -84 -430 c 4
 -373 -430 -440 -302.520507812 -440 -196 c 4
 -440 -109 -380 -69 -313 -69 c 6
 -307 -69 l 6
 -240 -69 -220.84375 -98.8056640625 -211 -124 c 4
 -201.909179688 -147.268554688 -181 -156 -162 -156 c 4
 -114 -156 -90 -84 -66 21 c 6
 119 820 l 6
 160.242190206 997.902702133 242 1080 389 1080 c 6
 399 1080 l 6
 546 1080 637.40598221 997.795914996 595 820 c 6
 387 -55 l 6
678 1365 m 258
 678 1345 l 258
 678 1231 608 1160 488 1160 c 258
 478 1160 l 258
 358 1160 288 1231 288 1345 c 258
 288 1365 l 258
 288 1479 358 1550 478 1550 c 258
 488 1550 l 258
 608 1550 678 1479 678 1365 c 258
EndSplineSet
EndChar

StartChar: k
Encoding: 107 107 48
Width: 1302
VWidth: 1872
Flags: HMW
LayerCount: 2
Fore
SplineSet
482 1480 m 262
 492 1480 l 262
 639 1480 728 1397 687 1220 c 262
 459 230 l 262
 420 63 330 -30 183 -30 c 262
 173 -30 l 262
 26 -30 -56 63 -17 230 c 262
 212 1220 l 262
 253 1397 335 1480 482 1480 c 262
252 461 m 261
 715 900 l 262
 847 1022 908 1080 1016 1080 c 262
 1020 1080 l 262
 1197 1080 1252 903 1127 800 c 262
 450 234 l 261
 252 461 l 261
498 650 m 261
 946 708 l 261
 1136 306 l 262
 1215.62347752 137.533484401 1115 -30 938 -30 c 262
 928 -30 l 262
 750 -30 670 61 626 207 c 262
 498 650 l 261
EndSplineSet
EndChar

StartChar: l
Encoding: 108 108 49
Width: 575
VWidth: 1872
Flags: HMW
LayerCount: 2
Fore
SplineSet
470 1480 m 262
 480 1480 l 262
 627 1480 728 1397 687 1220 c 262
 458 230 l 262
 417 53 348 -30 201 -30 c 262
 191 -30 l 262
 44 -30 -60 53 -19 230 c 262
 210 1220 l 262
 251 1397 323 1480 470 1480 c 262
EndSplineSet
EndChar

StartChar: m
Encoding: 109 109 50
Width: 1583
VWidth: 1872
Flags: HMW
LayerCount: 2
Fore
SplineSet
990 703 m 261
 1045 943 1152 1085 1349 1085 c 260
 1556 1085 1645 973 1573 663 c 262
 1473 230 l 262
 1432 53 1349 -30 1202 -30 c 262
 1182 -30 l 262
 1035 -30 974 53 1015 230 c 262
 1104 613 l 262
 1127 713 1133 762 1093 762 c 260
 1056 762 1021 683 973 473 c 261
 990 703 l 261
376 1080 m 262
 396 1080 l 262
 543 1080 607 997 566 820 c 262
 536 687 l 261
 539 660 l 261
 440 230 l 262
 399 53 312 -30 175 -30 c 262
 155 -30 l 262
 8 -30 -59 53 -18 230 c 262
 118 820 l 262
 159 997 229 1080 376 1080 c 262
521 703 m 261
 576 943 655 1085 832 1085 c 260
 1019 1085 1089 973 1017 663 c 262
 917 230 l 262
 876 53 827 -30 680 -30 c 262
 670 -30 l 262
 523 -30 495 53 536 230 c 262
 625 613 l 262
 648 713 655 762 616 762 c 260
 578 762 544 683 496 473 c 261
 521 703 l 261
EndSplineSet
EndChar

StartChar: n
Encoding: 110 110 51
Width: 1221
VWidth: 1872
Flags: HMW
AnchorPoint: "top" 752 1050 basechar 0
AnchorPoint: "bottom" 509 0 basechar 0
LayerCount: 2
Fore
SplineSet
391 1080 m 262
 401 1080 l 262
 548 1080 627 997 586 820 c 262
 556 687 l 261
 559 660 l 261
 460 230 l 262
 419 53 327 -30 180 -30 c 262
 170 -30 l 262
 23 -30 -59 53 -18 230 c 262
 118 820 l 262
 159 997 244 1080 391 1080 c 262
542 711 m 261
 597 951 735 1084 942 1084 c 260
 1169 1084 1282 973 1210 663 c 262
 1110 230 l 262
 1069 53 997 -30 850 -30 c 262
 840 -30 l 262
 693 -30 592 53 633 230 c 262
 722 613 l 262
 745 713 745 762 684 762 c 260
 631 762 566 697 518 487 c 261
 542 711 l 261
EndSplineSet
EndChar

StartChar: o
Encoding: 111 111 52
Width: 1245
VWidth: 1872
Flags: HMW
AnchorPoint: "bottom" 519 0 basechar 0
AnchorPoint: "top" 762.411 1050 basechar 0
LayerCount: 2
Fore
SplineSet
6 449 m 2
 46 622 l 2
 112 907 354 1084 722 1084 c 0
 1090 1084 1307 887 1241 602 c 6
 1201 429 l 6
 1135 144 892 -34 524 -34 c 0
 156 -34 -60 164 6 449 c 2
481 408 m 2
 454 291 473 239 557 239 c 0
 641 239 685 291 712 408 c 2
 766 643 l 2
 793 760 773 811 689 811 c 0
 605 811 562 760 535 643 c 2
 481 408 l 2
EndSplineSet
EndChar

StartChar: p
Encoding: 112 112 53
Width: 1278
VWidth: 1872
Flags: HMW
LayerCount: 2
Fore
SplineSet
516 641 m 5
 581 924 701 1084 950 1084 c 4
 1209 1084 1353 946 1276 614 c 6
 1235 436 l 6
 1158 104 1011 -34 752 -34 c 4
 503 -34 407 126 472 409 c 5
 516 475 l 5
 491 368 521 297 595 297 c 4
 679 297 736 348 761 455 c 6
 793 595 l 6
 818 702 784 753 700 753 c 4
 626 753 564 682 539 575 c 5
 516 641 l 5
-101 -130 m 262
 118 820 l 262
 157 987 233 1080 380 1080 c 262
 385 1080 l 262
 532 1080 619 987 580 820 c 262
 578 810 l 261
 590 798 l 261
 376 -130 l 262
 337 -297 253 -390 106 -390 c 262
 96 -390 l 262
 -51 -390 -140 -297 -101 -130 c 262
EndSplineSet
EndChar

StartChar: q
Encoding: 113 113 54
Width: 1297
VWidth: 1872
Flags: HMW
LayerCount: 2
Fore
SplineSet
832 -390 m 262
 822 -390 l 262
 675 -390 561 -307 600 -140 c 262
 797 715 l 261
 1086 985 l 262
 1144 1039 1183 1075 1230 1075 c 262
 1241 1075 l 262
 1308 1075 1346 1022 1310 865 c 262
 1078 -140 l 262
 1039 -307 979 -390 832 -390 c 262
745 408 m 5
 680 125 579 -34 330 -34 c 4
 71 -34 -71 104 6 436 c 6
 47 614 l 6
 119 926 307 1084 616 1084 c 4
 895 1084 919 926 854 643 c 5
 765 575 l 5
 796 711 761 753 687 753 c 4
 603 753 545 702 520 595 c 6
 488 455 l 6
 463 348 498 297 582 297 c 4
 656 297 717 368 742 475 c 5
 745 408 l 5
EndSplineSet
EndChar

StartChar: r
Encoding: 114 114 55
Width: 1098
VWidth: 1872
Flags: HMW
AnchorPoint: "bottom" 204 0 basechar 0
AnchorPoint: "top" 597 1050 basechar 0
LayerCount: 2
Fore
SplineSet
531 453 m 5
 558 770 l 5
 632 930 748 1084 910 1084 c 4
 1069 1084 1129.30078125 973.318359375 1119 810 c 4
 1111.13085938 685.231445312 1008 583 821 583 c 6
 810 583 l 6
 733 583 679.661132812 616.46484375 688 690 c 4
 693.26171875 736.399414062 682 760 656 760 c 4
 608 760 581 658 531 453 c 5
385 1080 m 262
 400 1080 l 262
 548 1080 621 997 580 820 c 262
 558 724 l 261
 591 715 l 261
 479 230 l 262
 438 52 346 -30 199 -30 c 262
 189 -30 l 262
 43 -30 -40 54 1 230 c 262
 137 820 l 262
 178 996 239 1080 385 1080 c 262
EndSplineSet
EndChar

StartChar: s
Encoding: 115 115 56
Width: 1126
VWidth: 1872
Flags: HMW
AnchorPoint: "bottom" 441 0 basechar 0
AnchorPoint: "top" 644 1050 basechar 0
LayerCount: 2
Fore
SplineSet
164 388 m 262
 174 388 l 262
 265 388 318 367 325 321 c 4
 329 298 327 281 334 265 c 4
 344 242 371 222 453 222 c 260
 537 222 564 233 573 274 c 260
 601 395 14 380 95 748 c 260
 149.49132749 995.565537239 321 1085 651 1085 c 260
 940 1085 1082 974 1087 864 c 4
 1088 846 1085.90077607 816.024588275 1080 792 c 260
 1066 735 1001 688 904 688 c 262
 895 688 l 262
 815 688 740 692 743 767 c 4
 744 786 743 795 737 807 c 4
 724 831 687 843 620 843 c 260
 549 843 521 827 513 794 c 260
 485 674 1151 713 1049 272 c 260
 993 29 813 -35 442 -35 c 260
 108 -35 -38 83 -41 212 c 4
 -41 231 -40 244 -36 260 c 260
 -11 367 67 388 164 388 c 262
EndSplineSet
EndChar

StartChar: t
Encoding: 116 116 57
Width: 792
VWidth: 1872
Flags: HMW
AnchorPoint: "bottom" 439 0 basechar 0
LayerCount: 2
Fore
SplineSet
644 816 m 262
 304 816 l 262
 127 816 44 833 44 930 c 262
 44 935 l 262
 44 1032 127 1050 304 1050 c 262
 644 1050 l 262
 821 1050 904 1032 904 935 c 262
 904 930 l 262
 904 833 821 816 644 816 c 262
760 190 m 262
 758 180 l 262
 738.538461538 82.6923076923 673 -3 514 -13 c 260
 168 -35 1 44 72 352 c 262
 259 1160 l 262
 300 1337 414 1430 561 1430 c 262
 566 1430 l 262
 713 1430 773 1337 732 1160 c 262
 561 422 l 262
 531 294 631 313 662 314 c 260
 738 316 779.461538462 287.307692308 760 190 c 262
EndSplineSet
EndChar

StartChar: u
Encoding: 117 117 58
Width: 1221
VWidth: 1872
Flags: HMW
AnchorPoint: "top" 741 1050 basechar 0
AnchorPoint: "bottom" 448 0 basechar 0
AnchorPoint: "ogonek" 834 0 basechar 0
LayerCount: 2
Fore
SplineSet
848 -30 m 262
 828 -30 l 262
 681 -30 597 53 638 230 c 262
 669 363 l 261
 665 390 l 261
 764 820 l 262
 805 997 882 1080 1029 1080 c 262
 1039 1080 l 262
 1186 1080 1283 997 1242 820 c 262
 1106 230 l 262
 1063.00112385 43.4607578915 975 -30 848 -30 c 262
674 347 m 261
 619 107 496 -35 279 -35 c 260
 52 -35 -58.6141152165 76.9108811124 13 387 c 262
 113 820 l 262
 154 997 217 1080 364 1080 c 262
 374 1080 l 262
 521 1080 632 997 591 820 c 262
 503 437 l 262
 480 337 478 288 540 288 c 260
 600 288 660 367 708 577 c 261
 674 347 l 261
EndSplineSet
EndChar

StartChar: v
Encoding: 118 118 59
Width: 1183
VWidth: 1872
Flags: HMW
LayerCount: 2
Fore
SplineSet
578 337 m 261
 788 820 l 262
 860.718600954 987.252782194 914 1080 1061 1080 c 262
 1071 1080 l 262
 1228 1080 1292.98264669 984.00894047 1209 821 c 262
 904 229 l 262
 810.603726361 47.7193639527 662 -30 515 -30 c 262
 391 -30 l 262
 244 -30 191.050250907 52.9031986501 173 230 c 262
 120 750 l 262
 100 936 200 1080 367 1080 c 262
 377 1080 l 262
 544 1080 596 988 590 820 c 262
 578 337 l 261
EndSplineSet
EndChar

StartChar: w
Encoding: 119 119 60
Width: 1486
VWidth: 1872
Flags: HMW
LayerCount: 2
Fore
SplineSet
1048 467 m 261
 1176 820 l 262
 1238.41353826 992.124835985 1284 1080 1401 1080 c 262
 1411 1080 l 262
 1528 1080 1585.91200394 989.408676362 1517 820 c 262
 1277 230 l 262
 1207.94601923 60.242297264 1086 -30 939 -30 c 262
 924 -30 l 262
 777 -30 703.165329416 59.9962707651 707 230 c 262
 710 363 l 261
 656 230 l 262
 586.566561514 58.9880126183 446 -30 299 -30 c 262
 284 -30 l 262
 137 -30 72.905401483 58.7681082935 81 230 c 262
 107 780 l 262
 116.413053804 979.122292002 194 1080 351 1080 c 262
 352 1080 l 262
 499 1080 556.983996807 992.094365622 541 820 c 262
 511 497 l 261
 653 820 l 262
 727.087105299 988.522077547 754 1080 891 1080 c 262
 896 1080 l 262
 1033 1080 1061.21254275 996.969770402 1057 828 c 262
 1048 467 l 261
EndSplineSet
EndChar

StartChar: x
Encoding: 120 120 61
Width: 1241
VWidth: 1872
Flags: HMW
LayerCount: 2
Fore
SplineSet
124 -30 m 262
 119 -30 l 262
 -48 -30 -90 92 90 270 c 262
 327 505 l 261
 202 790 l 262
 132 939 276 1090 453 1090 c 262
 468 1090 l 262
 645 1090 704.721633888 992.493192133 731 883 c 262
 737 858 l 261
 774 903 l 262
 867.197701827 1016.34855628 933 1080 1040 1080 c 262
 1045 1080 l 262
 1222 1080 1246.36073064 948.153121563 1132 841 c 262
 894 618 l 261
 1037 290 l 262
 1109.05900822 124.717799317 1009 -40 842 -40 c 262
 802 -40 l 262
 654 -40 560.144776621 27.3372522674 513 165 c 262
 488 238 l 261
 458 205 l 262
 329.583710407 63.742081448 251 -30 124 -30 c 262
EndSplineSet
EndChar

StartChar: y
Encoding: 121 121 62
Width: 1175
VWidth: 1872
Flags: HMWO
AnchorPoint: "top" 739 1050 basechar 0
LayerCount: 2
Fore
SplineSet
599 335 m 257
 809 817 l 258
 876 975 944 1080 1071 1080 c 258
 1081 1080 l 258
 1238 1080 1272 960 1184 790 c 258
 943 327 l 2
 726 -91 529 -390 106 -390 c 0
 -173 -390 -221 -271 -208 -156 c 0
 -197 -62 -117 -19 -60 -19 c 2
 -53 -19 l 2
 14 -19 62 -52 60 -116 c 0
 59 -138 61 -156 78 -156 c 0
 101 -156 139 -96 193 -15 c 1
 116 790 l 258
 100 958 209 1080 376 1080 c 258
 386 1080 l 258
 543 1080 615 980 611 822 c 258
 599 335 l 257
EndSplineSet
EndChar

StartChar: z
Encoding: 122 122 63
Width: 1098
VWidth: 1872
Flags: HMW
AnchorPoint: "top" 677 1050 basechar 0
LayerCount: 2
Fore
SplineSet
109 310 m 262
 464 709 l 261
 362 709 l 262
 183 709 102 771 102 870 c 262
 102 880 l 262
 102 979 183 1050 362 1050 c 262
 944 1050 l 262
 1141 1050 1105 885 981 760 c 262
 605 341 l 261
 772 341 l 262
 949 341 1032 277 1032 180 c 262
 1032 170 l 262
 1032 73 949 0 772 0 c 262
 122 0 l 262
 -64 0 -29 171 109 310 c 262
EndSplineSet
EndChar

StartChar: comma
Encoding: 44 44 65
Width: 740
VWidth: 1920
Flags: HMW
LayerCount: 2
Fore
SplineSet
-9 -310 m 14
 -17 -310 l 22
 -54 -310 -73.5204117572 -256.520411757 -17 -200 c 14
 183 0 l 261
 181 0 l 6
 112.479492188 0 13 81.404296875 13 190 c 6
 13 230 l 6
 13 377 116 500 293 500 c 6
 323 500 l 6
 500 500 603 397 603 250 c 6
 603 220 l 6
 603 63 441.220870621 -48.4603946329 354 -100 c 6
 134 -230 l 22
 62.1687523928 -272.445737222 29 -310 -9 -310 c 14
EndSplineSet
EndChar

StartChar: exclam
Encoding: 33 33 67
Width: 740
VWidth: 1920
Flags: HMW
LayerCount: 2
Fore
SplineSet
256 -40 m 6
 226 -40 l 6
 49 -40 -31 63 3 210 c 6
 13 250 l 6
 47 397 173 500 350 500 c 6
 380 500 l 6
 557 500 637 397 603 250 c 6
 593 210 l 6
 559 63 433 -40 256 -40 c 6
217 1180 m 6
 224 1210 l 6
 260 1367 420 1480 577 1480 c 6
 607 1480 l 6
 764 1480 870 1367 834 1210 c 6
 827 1180 l 6
 802 1073 769 996 683 860 c 6
 557 660 l 6
 499 567 454 530 377 530 c 6
 367 530 l 6
 290 530 262 567 247 660 c 6
 215 860 l 6
 192 996 192 1073 217 1180 c 6
EndSplineSet
EndChar

StartChar: quotesingle
Encoding: 39 39 70
Width: 610
VWidth: 1920
Flags: HMW
LayerCount: 2
Fore
SplineSet
375 800 m 6
 355 800 l 2
 288 800 262 842 253 910 c 6
 231 1080 l 2
 221 1157 222 1223 231 1260 c 2
 233 1270 l 2
 251 1347 328 1450 515 1450 c 2
 525 1450 l 2
 722 1450 751 1347 733 1270 c 2
 731 1260 l 2
 722 1223 684 1155 637 1080 c 2
 527 910 l 6
 484 844 442 800 375 800 c 6
EndSplineSet
EndChar

StartChar: question
Encoding: 63 63 71
Width: 1320
VWidth: 1920
Flags: HMW
LayerCount: 2
Fore
SplineSet
575 -40 m 6
 545 -40 l 6
 368 -40 265 53 265 200 c 6
 265 210 l 6
 265 357 368 450 545 450 c 6
 575 450 l 6
 752 450 855 357 855 210 c 6
 855 200 l 6
 855 53 752 -40 575 -40 c 6
648 510 m 2
 638 510 l 2
 531 510 452 561 523 689 c 0
 593 815 806 868 839 1013 c 258
 842 1028 l 258
 860 1108 838 1135 781 1135 c 256
 721 1135 683 1075 669 1012 c 258
 668 1010 l 2
 655 953 595 902 428 902 c 2
 418 902 l 2
 251 902 177 965 202 1072 c 2
 205 1082 l 258
 250 1276 485 1485 882 1485 c 256
 1279 1485 1471 1323 1420 1103 c 258
 1414 1078 l 258
 1339 755 1006 752 873 632 c 0
 769 538 715 510 648 510 c 2
EndSplineSet
EndChar

StartChar: parenleft
Encoding: 40 40 72
Width: 785
VWidth: 2048
Flags: HMW
LayerCount: 2
Fore
SplineSet
93 838 m 262
 187 1243 478 1484 836 1588 c 4
 946 1620 1022 1567 1004 1490 c 6
 999 1470 l 6
 981 1393 925 1365 822 1306 c 4
 729 1252 631 1109 562 808 c 262
 477 442 l 262
 408 141 454 -22 523 -76 c 4
 598 -135 627 -143 609 -220 c 6
 605 -240 l 6
 587 -317 487 -370 391 -338 c 4
 81 -234 -99 7 -5 412 c 262
 93 838 l 262
EndSplineSet
EndChar

StartChar: parenright
Encoding: 41 41 73
Width: 785
VWidth: 2048
Flags: HMW
LayerCount: 2
Fore
SplineSet
740 412 m 258
 646 7 356 -234 -2 -338 c 0
 -112 -370 -188 -317 -170 -240 c 2
 -166 -220 l 2
 -148 -143 -92 -115 11 -56 c 0
 104 -2 203 141 272 442 c 258
 357 808 l 258
 426 1109 379 1272 310 1326 c 0
 235 1385 206 1393 224 1470 c 2
 229 1490 l 2
 247 1567 346 1620 442 1588 c 0
 752 1484 932 1243 838 838 c 258
 740 412 l 258
EndSplineSet
EndChar

StartChar: asterisk
Encoding: 42 42 74
Width: 1287
VWidth: 2048
Flags: HMW
LayerCount: 2
Fore
SplineSet
739 886 m 257
 732 953 l 257
 996 1164 l 2
 1096 1244 1121 1262 1190 1283 c 2
 1195 1285 l 2
 1314 1321 1389 1237 1398 1135 c 2
 1401 1106 l 2
 1410 1004 1355 881 1236 845 c 2
 1231 844 l 2
 1162 823 1135 825 1026 842 c 2
 739 886 l 257
701 901 m 257
 767 942 l 257
 1002 802 l 2
 1091 749 1112 735 1139 681 c 2
 1141 677 l 2
 1188 582 1111 467 1009 404 c 2
 981 387 l 2
 879 324 752 310 705 405 c 2
 702 409 l 2
 675 463 676 491 683 604 c 2
 701 901 l 257
712 941 m 257
 760 900 l 257
 640 603 l 2
 595 490 582 462 531 408 c 2
 527 404 l 2
 436 309 314 323 242 386 c 2
 222 403 l 2
 150 466 125 581 216 676 c 2
 220 680 l 2
 271 734 300 748 413 801 c 2
 712 941 l 257
753 953 m 257
 716 886 l 257
 407 842 l 2
 290 825 263 823 204 844 c 2
 199 845 l 2
 96 881 97 1004 154 1106 c 2
 171 1135 l 2
 228 1237 341 1321 444 1285 c 2
 447 1283 l 2
 506 1262 523 1244 587 1164 c 2
 753 953 l 257
770 920 m 257
 700 920 l 257
 629 1190 l 2
 602 1292 597 1318 612 1385 c 2
 613 1390 l 2
 640 1507 763 1570 870 1570 c 2
 900 1570 l 2
 1007 1570 1102 1507 1075 1390 c 2
 1074 1385 l 2
 1059 1318 1042 1292 967 1190 c 2
 770 920 l 257
EndSplineSet
EndChar

StartChar: at
Encoding: 64 64 75
Width: 1990
VWidth: 1920
Flags: HMW
LayerCount: 2
Fore
SplineSet
1154 472 m 257
 1087 182 957 40 690 40 c 256
 473 40 332 157 410 497 c 258
 417 528 l 258
 491 848 701 985 938 985 c 256
 1195 985 1300 843 1233 553 c 257
 1078 533 l 257
 1101 633 1083 695 1006 695 c 256
 939 695 886 653 863 553 c 258
 844 472 l 258
 821 372 855 330 922 330 c 256
 999 330 1046 392 1069 492 c 257
 1154 472 l 257
1106 -285 m 256
 1017 -328 932 -360 782 -360 c 256
 225 -360 -17 13 94 493 c 258
 115 583 l 258
 233 1093 699 1435 1236 1435 c 256
 1843 1435 2006 1024 1916 633 c 258
 1895 543 l 258
 1812 183 1606 40 1379 40 c 256
 1172 40 998 185 1049 405 c 258
 1134 775 l 257
 1321 905 l 258
 1399 959 1435 985 1502 985 c 262
 1513 985 l 262
 1570 985 1614 952 1585 825 c 262
 1519 535 l 258
 1474 340 1488 280 1555 280 c 256
 1612 280 1669 343 1715 543 c 258
 1736 633 l 258
 1814 973 1651 1295 1204 1295 c 256
 797 1295 404 1013 307 593 c 258
 282 483 l 258
 194 103 377 -220 814 -220 c 256
 916 -220 1008 -191 1081 -154 c 256
 1143 -123 1175 -147 1178 -172 c 258
 1179 -178 l 258
 1183 -213 1162 -257 1106 -285 c 256
EndSplineSet
EndChar

StartChar: dollar
Encoding: 36 36 76
Width: 1219
VWidth: 1920
Flags: HMW
LayerCount: 2
Fore
SplineSet
201 528 m 2
 231 528 l 2
 334 528 376 467 361 400 c 2
 359 390 l 2
 340 306 415 285 555 285 c 256
 663 285 702 317 714 368 c 256
 724 412 668 435 574 464 c 256
 298 549 91 615 174 973 c 256
 236 1243 458 1435 820 1435 c 256
 1184 1435 1274 1236 1234 1061 c 2
 1232 1051 l 2
 1212 964 1147 923 1042 923 c 2
 1022 923 l 2
 917 923 862 964 875 1021 c 2
 877 1031 l 2
 887 1076 856 1135 741 1135 c 256
 669 1135 629 1083 620 1043 c 256
 608 992 648 960 772 932 c 256
 1114 855 1244 757 1168 428 c 256
 1095 111 890 -35 451 -35 c 256
 63 -35 -62 123 -12 339 c 2
 -9 349 l 2
 11 436 88 528 201 528 c 2
862 1590 m 2
 872 1590 l 2
 889 1590 905 1577 896 1540 c 2
 508 -140 l 2
 499 -177 478 -190 461 -190 c 2
 451 -190 l 2
 434 -190 419 -177 428 -140 c 2
 816 1540 l 2
 825 1577 845 1590 862 1590 c 2
EndSplineSet
EndChar

StartChar: numbersign
Encoding: 35 35 77
Width: 1610
VWidth: 1920
Flags: HMW
LayerCount: 2
Fore
SplineSet
199 690 m 2
 1409 690 l 2
 1516 690 1590 647 1565 540 c 2
 1562 530 l 2
 1537 423 1446 380 1338 380 c 2
 128 380 l 2
 21 380 -53 423 -28 530 c 2
 -25 540 l 2
 0 647 92 690 199 690 c 2
374 1100 m 2
 1584 1100 l 2
 1691 1100 1764 1057 1739 950 c 2
 1737 940 l 2
 1712 833 1619 790 1512 790 c 2
 302 790 l 2
 195 790 122 833 147 940 c 2
 149 950 l 2
 174 1057 267 1100 374 1100 c 2
1440 1430 m 2
 1470 1430 l 2
 1630 1430 1624 1292 1576 1190 c 2
 1094 160 l 2
 1046 58 963 -30 803 -30 c 2
 773 -30 l 2
 613 -30 596 58 644 160 c 2
 1126 1190 l 2
 1174 1292 1280 1430 1440 1430 c 2
870 1430 m 2
 900 1430 l 2
 1057 1430 1054 1292 1006 1190 c 2
 524 160 l 2
 476 58 390 -30 233 -30 c 2
 203 -30 l 2
 46 -30 26 58 74 160 c 2
 556 1190 l 2
 604 1292 713 1430 870 1430 c 2
EndSplineSet
EndChar

StartChar: slash
Encoding: 47 47 78
Width: 1040
VWidth: 2048
Flags: HMW
LayerCount: 2
Fore
SplineSet
1068 1190 m 6
 367 110 l 6
 279 -26 182 -130 75 -130 c 6
 65 -130 l 6
 -42 -130 -81 -26 7 110 c 6
 708 1190 l 6
 796 1326 894 1430 1000 1430 c 6
 1010 1430 l 6
 1117 1430 1156 1326 1068 1190 c 6
EndSplineSet
EndChar

StartChar: percent
Encoding: 37 37 79
Width: 1855
VWidth: 2048
Flags: HMW
LayerCount: 2
Fore
SplineSet
180 1083 m 262
 188 1118 l 262
 232 1308 419 1435 696 1435 c 260
 973 1435 1112 1308 1068 1118 c 262
 1060 1083 l 262
 1016 893 819 765 542 765 c 260
 265 765 136 893 180 1083 c 262
557 1093 m 262
 539 1013 555 985 592 985 c 260
 629 985 669 1013 687 1093 c 262
 691 1108 l 262
 709 1188 683 1215 646 1215 c 260
 609 1215 579 1188 561 1108 c 262
 557 1093 l 262
870 283 m 262
 878 318 l 262
 922 508 1110 635 1387 635 c 260
 1664 635 1802 508 1758 318 c 262
 1750 283 l 262
 1706 93 1509 -35 1232 -35 c 260
 955 -35 826 93 870 283 c 262
1248 293 m 262
 1230 213 1246 185 1283 185 c 260
 1320 185 1360 213 1378 293 c 262
 1381 308 l 262
 1399 388 1373 415 1336 415 c 260
 1299 415 1269 388 1251 308 c 262
 1248 293 l 262
1679 1140 m 6
 499 160 l 6
 368 51 270 -30 193 -30 c 6
 183 -30 l 6
 56 -30 66 100 259 260 c 6
 1439 1240 l 6
 1570 1349 1668 1430 1745 1430 c 6
 1755 1430 l 6
 1882 1430 1872 1300 1679 1140 c 6
EndSplineSet
EndChar

StartChar: hyphen
Encoding: 45 45 80
Width: 570
VWidth: 1920
Flags: HMW
LayerCount: 2
Fore
SplineSet
30 595 m 14
 30 630 l 22
 30 737 113 790 220 790 c 14
 390 790 l 22
 497 790 580 737 580 630 c 14
 580 595 l 22
 580 488 497 435 390 435 c 14
 220 435 l 22
 113 435 30 488 30 595 c 14
EndSplineSet
EndChar

StartChar: underscore
Encoding: 95 95 81
Width: 900
VWidth: 1920
Flags: HMW
LayerCount: 2
Fore
SplineSet
-190 -195 m 14
 -190 -160 l 22
 -190 -53 -107 0 0 0 c 14
 580 0 l 22
 687 0 770 -53 770 -160 c 14
 770 -195 l 22
 770 -302 687 -355 580 -355 c 14
 0 -355 l 22
 -107 -355 -190 -302 -190 -195 c 14
EndSplineSet
EndChar

StartChar: plus
Encoding: 43 43 82
Width: 1040
VWidth: 1920
Flags: HMW
LayerCount: 2
Fore
SplineSet
55 675 m 10
 55 710 l 18
 55 817 138 870 245 870 c 10
 875 870 l 18
 982 870 1065 817 1065 710 c 10
 1065 675 l 18
 1065 568 982 515 875 515 c 10
 245 515 l 18
 138 515 55 568 55 675 c 10
667 1220 m 14
 697 1220 l 22
 804 1220 838 1137 813 1030 c 14
 651 330 l 22
 626 223 554 140 447 140 c 14
 417 140 l 22
 310 140 276 223 301 330 c 14
 463 1030 l 22
 488 1137 560 1220 667 1220 c 14
EndSplineSet
EndChar

StartChar: equal
Encoding: 61 61 83
Width: 1180
VWidth: 1920
Flags: HMW
LayerCount: 2
Fore
SplineSet
64 245 m 10
 64 280 l 18
 64 387 147 440 254 440 c 10
 814 440 l 18
 921 440 1004 387 1004 280 c 10
 1004 245 l 18
 1004 138 921 85 814 85 c 10
 254 85 l 18
 147 85 64 138 64 245 c 10
172 715 m 14
 172 750 l 22
 172 857 255 910 362 910 c 14
 922 910 l 22
 1029 910 1112 857 1112 750 c 14
 1112 715 l 22
 1112 608 1029 555 922 555 c 14
 362 555 l 22
 255 555 172 608 172 715 c 14
EndSplineSet
EndChar

StartChar: less
Encoding: 60 60 84
Width: 1010
VWidth: 1920
Flags: HMW
LayerCount: 2
Fore
SplineSet
571 179 m 6
 196 374 l 6
 79 435 31 483 56 590 c 6
 61 610 l 6
 86 717 156 765 301 826 c 6
 766 1021 l 6
 939 1093 1000 997 975 890 c 6
 973 880 l 6
 948 773 895 733 739 689 c 6
 428 600 l 261
 698 511 l 6
 833 467 869 427 844 320 c 6
 842 310 l 6
 817 203 710 107 571 179 c 6
EndSplineSet
EndChar

StartChar: greater
Encoding: 62 62 85
Width: 1010
VWidth: 1920
Flags: HMW
LayerCount: 2
Fore
SplineSet
476 1021 m 2
 851 826 l 2
 968 765 1016 717 991 610 c 2
 986 590 l 2
 961 483 891 435 746 374 c 2
 281 179 l 2
 108 107 47 203 72 310 c 2
 74 320 l 2
 99 427 152 467 308 511 c 2
 620 600 l 257
 349 689 l 2
 214 733 178 773 203 880 c 2
 205 890 l 2
 230 997 337 1093 476 1021 c 2
EndSplineSet
EndChar

StartChar: backslash
Encoding: 92 92 86
Width: 1040
VWidth: 2048
Flags: HMW
LayerCount: 2
Fore
SplineSet
843 110 m 2
 868 -26 782 -130 675 -130 c 2
 665 -130 l 2
 559 -130 508 -26 483 110 c 2
 282 1190 l 2
 257 1326 343 1430 450 1430 c 2
 460 1430 l 2
 567 1430 617 1326 642 1190 c 2
 843 110 l 2
EndSplineSet
EndChar

StartChar: bracketleft
Encoding: 91 91 87
Width: 760
VWidth: 1920
Flags: HMW
LayerCount: 2
Fore
SplineSet
662 1350 m 261
 325 -110 l 261
 405 -110 l 6
 512 -110 589 -133 569 -220 c 6
 562 -250 l 6
 542 -337 454 -360 347 -360 c 6
 77 -360 l 6
 -80 -360 -121 -307 -85 -150 c 6
 271 1390 l 6
 307 1547 372 1600 529 1600 c 6
 799 1600 l 6
 906 1600 984 1577 964 1490 c 6
 957 1460 l 6
 937 1373 849 1350 742 1350 c 6
 662 1350 l 261
EndSplineSet
EndChar

StartChar: braceleft
Encoding: 123 123 88
Width: 775
VWidth: 2048
Flags: HMW
LayerCount: 2
Fore
SplineSet
330 1278 m 262
 382 1505 524 1590 814 1600 c 4
 922 1604 942 1547 927 1480 c 6
 924 1470 l 6
 909 1403 878 1371 808 1360 c 4
 758 1352 713 1312 673 1138 c 262
 631 956 l 262
 588 771 476 668 309 620 c 261
 454 572 519 469 476 284 c 262
 436 112 l 262
 396 -61 422 -102 467 -110 c 4
 534 -121 549 -153 534 -220 c 6
 530 -240 l 6
 515 -307 468 -364 360 -360 c 4
 76 -350 -26 -265 26 -38 c 262
 101 284 l 262
 127 397 114 451 71 472 c 4
 18 498 -20 519 2 616 c 6
 4 624 l 6
 26 721 75 743 137 767 c 4
 195 789 230 842 256 956 c 262
 330 1278 l 262
EndSplineSet
EndChar

StartChar: bracketright
Encoding: 93 93 89
Width: 750
VWidth: 1920
Flags: HMW
LayerCount: 2
Fore
SplineSet
145 -110 m 257
 482 1350 l 257
 402 1350 l 2
 295 1350 217 1373 237 1460 c 2
 244 1490 l 2
 264 1577 352 1600 459 1600 c 2
 729 1600 l 2
 886 1600 927 1547 891 1390 c 2
 535 -150 l 2
 499 -307 434 -360 277 -360 c 2
 7 -360 l 2
 -100 -360 -178 -337 -158 -250 c 2
 -151 -220 l 2
 -131 -133 -42 -110 65 -110 c 2
 145 -110 l 257
EndSplineSet
EndChar

StartChar: braceright
Encoding: 125 125 90
Width: 775
VWidth: 2048
Flags: HMW
LayerCount: 2
Fore
SplineSet
491 -38 m 258
 439 -265 297 -350 7 -360 c 0
 -101 -364 -120 -307 -105 -240 c 2
 -103 -230 l 2
 -88 -163 -57 -131 13 -120 c 0
 63 -112 109 -72 149 102 c 258
 191 284 l 258
 234 469 345 572 512 620 c 257
 367 668 303 771 346 956 c 258
 385 1128 l 258
 425 1301 400 1342 355 1350 c 0
 288 1361 272 1393 287 1460 c 2
 292 1480 l 2
 307 1547 353 1604 461 1600 c 0
 745 1590 847 1505 795 1278 c 258
 721 956 l 258
 695 843 707 789 750 768 c 0
 803 742 841 721 819 624 c 2
 817 616 l 2
 795 519 746 497 684 473 c 0
 626 451 592 398 566 284 c 258
 491 -38 l 258
EndSplineSet
EndChar

StartChar: bar
Encoding: 124 124 91
Width: 515
VWidth: 1920
Flags: HMW
LayerCount: 2
Fore
SplineSet
504 1630 m 14
 524 1630 l 22
 631 1630 666 1507 639 1390 c 14
 283 -150 l 22
 258 -257 165 -390 58 -390 c 14
 38 -390 l 22
 -69 -390 -102 -257 -77 -150 c 14
 279 1390 l 22
 306 1507 397 1630 504 1630 c 14
EndSplineSet
EndChar

StartChar: asciitilde
Encoding: 126 126 92
Width: 1330
VWidth: 2048
Flags: HMW
LayerCount: 2
Fore
SplineSet
452 519 m 256
 410 519 391 499 380 477 c 0
 342 401 262 368 185 368 c 6
 165 368 l 6
 58 368 -11 465 41 567 c 0
 96 675 204 879 475 879 c 256
 764 879 814 682 916 682 c 256
 958 682 975 701 992 743 c 0
 1016 800 1109 843 1186 843 c 2
 1205 843 l 2
 1312 843 1391 746 1338 643 c 0
 1283 535 1166 332 896 332 c 256
 607 332 554 519 452 519 c 256
EndSplineSet
EndChar

StartChar: asciicircum
Encoding: 94 94 93
Width: 820
VWidth: 1920
Flags: HMW
LayerCount: 2
Fore
SplineSet
519 991 m 257
 472 890 l 2
 404 741 319 700 212 700 c 6
 202 700 l 6
 95 700 25 756 112 890 c 2
 339 1240 l 2
 416 1359 503 1430 610 1430 c 2
 630 1430 l 2
 737 1430 791 1359 813 1240 c 2
 878 890 l 2
 903 756 814 700 702 700 c 2
 692 700 l 2
 582 700 517 741 518 890 c 2
 519 991 l 257
EndSplineSet
EndChar

StartChar: figuredash
Encoding: 8210 8210 108
Width: 1150
VWidth: 2048
Flags: HMW
LayerCount: 2
Fore
SplineSet
30 595 m 14
 30 630 l 22
 30 737 113 790 220 790 c 14
 970 790 l 22
 1077 790 1160 737 1160 630 c 14
 1160 595 l 22
 1160 488 1077 435 970 435 c 14
 220 435 l 22
 113 435 30 488 30 595 c 14
EndSplineSet
EndChar

StartChar: endash
Encoding: 8211 8211 109
Width: 1100
VWidth: 2048
Flags: HMW
LayerCount: 2
Fore
SplineSet
30 595 m 14
 30 630 l 22
 30 737 113 790 220 790 c 14
 920 790 l 22
 1027 790 1110 737 1110 630 c 14
 1110 595 l 22
 1110 488 1027 435 920 435 c 14
 220 435 l 22
 113 435 30 488 30 595 c 14
EndSplineSet
EndChar

StartChar: emdash
Encoding: 8212 8212 110
Width: 2200
VWidth: 2048
Flags: HMW
LayerCount: 2
Fore
SplineSet
30 595 m 14
 30 630 l 22
 30 737 113 790 220 790 c 14
 2020 790 l 22
 2127 790 2210 737 2210 630 c 14
 2210 595 l 22
 2210 488 2127 435 2020 435 c 14
 220 435 l 22
 113 435 30 488 30 595 c 14
EndSplineSet
EndChar

StartChar: uni2015
Encoding: 8213 8213 111
Width: 2360
VWidth: 2048
Flags: HMW
LayerCount: 2
Fore
SplineSet
30 595 m 14
 30 630 l 22
 30 737 113 790 220 790 c 14
 2180 790 l 22
 2287 790 2370 737 2370 630 c 14
 2370 595 l 22
 2370 488 2287 435 2180 435 c 14
 220 435 l 22
 113 435 30 488 30 595 c 14
EndSplineSet
EndChar

StartChar: quoteleft
Encoding: 8216 8216 114
Width: 740
VWidth: 1920
Flags: HMW
LayerCount: 2
Fore
SplineSet
771 1435 m 14
 779 1435 l 22
 816 1435 835.520507812 1381.52050781 779 1325 c 14
 579 1125 l 261
 581 1125 l 6
 649.520507812 1125 749 1043.59570312 749 935 c 6
 749 895 l 6
 749 748 646 625 469 625 c 6
 439 625 l 6
 262 625 159 728 159 875 c 6
 159 905 l 6
 159 1062 320.779296875 1173.45996094 408 1225 c 6
 628 1355 l 22
 699.831054688 1397.4453125 733 1435 771 1435 c 14
EndSplineSet
EndChar

StartChar: quotereversed
Encoding: 8219 8219 117
Width: 740
VWidth: 1920
Flags: HMW
LayerCount: 2
Fore
SplineSet
607 630 m 18
 569 630 541.789550781 652.210449219 484 710 c 10
 354 830 l 2
 274.878594249 903.03514377 215 983 215 1090 c 2
 215 1120 l 2
 215 1267 328 1440 555 1440 c 2
 585 1440 l 2
 712 1440 815 1337 815 1190 c 2
 815 1150 l 2
 815 1041.40429688 673.520507812 940 565 940 c 2
 555 940 l 257
 635 740 l 18
 665.44221444 663.894463901 652 630 615 630 c 10
 607 630 l 18
EndSplineSet
EndChar

StartChar: bullet
Encoding: 8226 8226 120
Width: 890
VWidth: 2048
Flags: HMW
LayerCount: 2
Fore
SplineSet
170 698 m 262
 170 793 l 262
 170 983 313 1100 510 1100 c 260
 707 1100 860 983 860 793 c 262
 860 698 l 262
 860 508 707 390 510 390 c 260
 313 390 170 508 170 698 c 262
  Spiro
    170 698 [
    170 793 ]
    214.285 956.901 o
    334.447 1062.7 o
    510 1100 o
    688.141 1062.7 o
    813.127 956.901 o
    860 793 [
    860 698 ]
    813.127 533.841 o
    688.141 427.556 o
    510 390 o
    334.447 427.556 o
    214.285 533.841 o
    0 0 z
  EndSpiro
EndSplineSet
EndChar

StartChar: dagger
Encoding: 8224 8224 124
Width: 1330
VWidth: 1920
Flags: HMW
LayerCount: 2
Fore
SplineSet
130 905 m 14
 130 940 l 22
 130 1017 213 1050 320 1050 c 14
 1190 1050 l 22
 1297 1050 1380 997 1380 940 c 14
 1380 905 l 22
 1380 848 1297 795 1190 795 c 14
 320 795 l 22
 213 795 130 828 130 905 c 14
840 1430 m 10
 910 1430 l 18
 1067 1430 1094 1317 1058 1160 c 10
 845 240 l 18
 809 83 730 -30 573 -30 c 10
 503 -30 l 18
 346 -30 319 83 355 240 c 10
 568 1160 l 18
 604 1317 683 1430 840 1430 c 10
EndSplineSet
EndChar

StartChar: daggerdbl
Encoding: 8225 8225 125
Width: 1330
VWidth: 1920
Flags: HMW
LayerCount: 2
Fore
SplineSet
-50 110 m 14
 -50 145 l 22
 -50 222 33 255 140 255 c 14
 1010 255 l 22
 1117 255 1200 202 1200 145 c 14
 1200 110 l 22
 1200 53 1117 0 1010 0 c 14
 140 0 l 22
 33 0 -50 33 -50 110 c 14
130 905 m 10
 130 940 l 18
 130 1017 213 1050 320 1050 c 10
 1190 1050 l 18
 1297 1050 1380 997 1380 940 c 10
 1380 905 l 18
 1380 848 1297 795 1190 795 c 10
 320 795 l 18
 213 795 130 828 130 905 c 10
840 1430 m 10
 910 1430 l 18
 1067 1430 1094 1317 1058 1160 c 10
 762 -120 l 18
 726 -277 647 -390 490 -390 c 10
 420 -390 l 18
 263 -390 236 -277 272 -120 c 10
 568 1160 l 18
 604 1317 683 1430 840 1430 c 10
EndSplineSet
EndChar

StartChar: perthousand
Encoding: 8240 8240 126
Width: 2785
VWidth: 2048
Flags: HMW
LayerCount: 2
Fore
SplineSet
1800 283 m 262
 1808 318 l 262
 1852 508 2040 635 2317 635 c 260
 2594 635 2732 508 2688 318 c 262
 2680 283 l 262
 2636 93 2439 -35 2162 -35 c 260
 1885 -35 1756 93 1800 283 c 262
2178 293 m 262
 2160 213 2176 185 2213 185 c 260
 2250 185 2290 213 2308 293 c 262
 2311 308 l 262
 2329 388 2303 415 2266 415 c 260
 2229 415 2199 388 2181 308 c 262
 2178 293 l 262
180 1083 m 262
 188 1118 l 262
 232 1308 419 1435 696 1435 c 260
 973 1435 1112 1308 1068 1118 c 262
 1060 1083 l 262
 1016 893 819 765 542 765 c 260
 265 765 136 893 180 1083 c 262
557 1093 m 262
 539 1013 555 985 592 985 c 260
 629 985 669 1013 687 1093 c 262
 691 1108 l 262
 709 1188 683 1215 646 1215 c 260
 609 1215 579 1188 561 1108 c 262
 557 1093 l 262
870 283 m 262
 878 318 l 262
 922 508 1110 635 1387 635 c 260
 1664 635 1802 508 1758 318 c 262
 1750 283 l 262
 1706 93 1509 -35 1232 -35 c 260
 955 -35 826 93 870 283 c 262
1248 293 m 262
 1230 213 1246 185 1283 185 c 260
 1320 185 1360 213 1378 293 c 262
 1381 308 l 262
 1399 388 1373 415 1336 415 c 260
 1299 415 1269 388 1251 308 c 262
 1248 293 l 262
1679 1140 m 6
 499 160 l 6
 368 51 270 -30 193 -30 c 6
 183 -30 l 6
 56 -30 66 100 259 260 c 6
 1439 1240 l 6
 1570 1349 1668 1430 1745 1430 c 6
 1755 1430 l 6
 1882 1430 1872 1300 1679 1140 c 6
EndSplineSet
EndChar

StartChar: uni2031
Encoding: 8241 8241 127
Width: 3715
VWidth: 2048
Flags: HMW
LayerCount: 2
Fore
SplineSet
2730 283 m 262
 2738 318 l 262
 2782 508 2970 635 3247 635 c 260
 3524 635 3662 508 3618 318 c 262
 3610 283 l 262
 3566 93 3369 -35 3092 -35 c 260
 2815 -35 2686 93 2730 283 c 262
3108 293 m 262
 3090 213 3106 185 3143 185 c 260
 3180 185 3220 213 3238 293 c 262
 3241 308 l 262
 3259 388 3233 415 3196 415 c 260
 3159 415 3129 388 3111 308 c 262
 3108 293 l 262
1800 283 m 258
 1808 318 l 258
 1852 508 2040 635 2317 635 c 256
 2594 635 2732 508 2688 318 c 258
 2680 283 l 258
 2636 93 2439 -35 2162 -35 c 256
 1885 -35 1756 93 1800 283 c 258
2178 293 m 258
 2160 213 2176 185 2213 185 c 256
 2250 185 2290 213 2308 293 c 258
 2311 308 l 258
 2329 388 2303 415 2266 415 c 256
 2229 415 2199 388 2181 308 c 258
 2178 293 l 258
180 1083 m 258
 188 1118 l 258
 232 1308 419 1435 696 1435 c 256
 973 1435 1112 1308 1068 1118 c 258
 1060 1083 l 258
 1016 893 819 765 542 765 c 256
 265 765 136 893 180 1083 c 258
557 1093 m 258
 539 1013 555 985 592 985 c 256
 629 985 669 1013 687 1093 c 258
 691 1108 l 258
 709 1188 683 1215 646 1215 c 256
 609 1215 579 1188 561 1108 c 258
 557 1093 l 258
870 283 m 258
 878 318 l 258
 922 508 1110 635 1387 635 c 256
 1664 635 1802 508 1758 318 c 258
 1750 283 l 258
 1706 93 1509 -35 1232 -35 c 256
 955 -35 826 93 870 283 c 258
1248 293 m 258
 1230 213 1246 185 1283 185 c 256
 1320 185 1360 213 1378 293 c 258
 1381 308 l 258
 1399 388 1373 415 1336 415 c 256
 1299 415 1269 388 1251 308 c 258
 1248 293 l 258
1679 1140 m 2
 499 160 l 2
 368 51 270 -30 193 -30 c 2
 183 -30 l 2
 56 -30 66 100 259 260 c 2
 1439 1240 l 2
 1570 1349 1668 1430 1745 1430 c 2
 1755 1430 l 2
 1882 1430 1872 1300 1679 1140 c 2
EndSplineSet
EndChar

StartChar: fraction
Encoding: 8260 8260 128
Width: 930
VWidth: 1920
Flags: HMW
LayerCount: 2
Fore
SplineSet
1007 1292 m 14
 1015 1282 l 18
 1062 1228 1028 1141 966 1068 c 10
 241 212 l 22
 156 112 36 102 -5 149 c 14
 -13 158 l 22
 -59 210 -7 304 59 382 c 10
 784 1238 l 18
 846 1311 964 1341 1007 1292 c 14
EndSplineSet
EndChar

StartChar: uni2074
Encoding: 8308 8308 129
Width: 784
VWidth: 1920
Flags: HMW
LayerCount: 2
Fore
SplineSet
881 864 m 258
 880 858 l 258
 864 788 818 756 736 756 c 258
 724 756 l 257
 720 738 l 258
 701 656 632 600 544 600 c 258
 538 600 l 258
 450 600 407 656 426 738 c 258
 430 756 l 257
 202 756 l 258
 96 756 62 824 85 924 c 258
 85 925 l 258
 104 1007 142 1054 228 1134 c 258
 463 1354 l 258
 538 1425 615 1470 721 1470 c 258
 727 1470 l 258
 833 1470 870 1390 850 1302 c 258
 773 966 l 257
 785 966 l 258
 867 966 897 934 881 864 c 258
485 966 m 257
 543 1218 l 257
 284 966 l 257
 485 966 l 257
EndSplineSet
EndChar

StartChar: uni2073
Encoding: 8307 8307 130
Width: 773
VWidth: 1920
Flags: HMW
LayerCount: 2
Fore
SplineSet
282 976 m 258
 288 976 l 258
 376 976 403 932 390 874 c 258
 389 868 l 258
 383 844 403 819 450 819 c 256
 502 819 536 841 546 883 c 258
 549 898 l 258
 559 940 536 966 478 966 c 258
 466 966 l 258
 402 966 386 1010 399 1068 c 258
 401 1074 l 258
 414 1132 450 1176 514 1176 c 258
 514 1176 l 258
 554 1176 584 1190 592 1226 c 258
 594 1235 l 258
 600 1259 590 1281 550 1281 c 256
 514 1281 497 1269 492 1249 c 258
 491 1243 l 258
 479 1191 427 1171 351 1171 c 258
 345 1171 l 258
 245 1171 201 1209 217 1279 c 258
 220 1291 l 258
 243 1389 399 1491 607 1491 c 256
 815 1491 933 1418 901 1280 c 258
 898 1265 l 258
 863 1115 702 1062 548 1062 c 257
 567 1092 l 257
 721 1092 875 1033 840 883 c 258
 829 838 l 258
 796 694 633 609 395 609 c 256
 184 609 68 701 104 856 c 258
 106 862 l 258
 121 926 170 976 282 976 c 258
EndSplineSet
EndChar

StartChar: uni2072
Encoding: 8306 8306 131
Width: 762
VWidth: 1920
Flags: HMW
LayerCount: 2
Fore
SplineSet
83 733 m 258
 140 981 571 1067 609 1233 c 258
 610 1236 l 258
 618 1272 593 1288 559 1288 c 256
 517 1288 496 1264 490 1238 c 258
 489 1232 l 258
 474 1168 418 1130 330 1130 c 258
 324 1130 l 258
 236 1130 192 1168 212 1256 c 258
 215 1268 l 258
 246 1402 387 1498 625 1498 c 256
 821 1498 940 1419 904 1263 c 258
 898 1236 l 258
 840 986 470 956 449 865 c 258
 448 859 l 257
 676 859 l 258
 782 859 827 839 807 751 c 258
 805 745 l 258
 785 657 730 637 624 637 c 258
 168 637 l 258
 92 637 67 666 82 730 c 258
 83 733 l 258
EndSplineSet
EndChar

StartChar: uni2070
Encoding: 8304 8304 132
Width: 800
VWidth: 1920
Flags: HMW
LayerCount: 2
Fore
SplineSet
118 923 m 262
 177 1178 l 262
 222 1374 383 1491 624 1491 c 260
 865 1491 972 1374 927 1178 c 262
 868 923 l 262
 823 727 662 609 421 609 c 260
 180 609 73 727 118 923 c 262
415 935 m 262
 394 846 406 813 468 813 c 260
 530 813 556 846 577 935 c 262
 630 1166 l 262
 651 1255 639 1287 577 1287 c 260
 515 1287 489 1255 468 1166 c 262
 415 935 l 262
EndSplineSet
EndChar

StartChar: uni2075
Encoding: 8309 8309 133
Width: 769
VWidth: 1920
Flags: HMW
LayerCount: 2
Fore
SplineSet
263 892 m 258
 266 892 l 258
 360 892 367 859 391 832 c 256
 401 821 419 806 447 806 c 256
 488 806 523 836 536 892 c 258
 540 907 l 258
 554 967 539 986 501 986 c 256
 470 986 442 957 433 949 c 256
 409 927 379 907 303 907 c 258
 249 907 l 258
 179 907 150 964 187 1069 c 258
 271 1307 l 258
 308 1411 377 1463 483 1463 c 258
 777 1463 l 258
 895 1463 931 1431 918 1373 c 258
 917 1370 l 258
 900 1298 836 1253 716 1253 c 258
 497 1253 l 257
 417 1070 l 257
 403 1070 l 257
 453 1144 571 1196 667 1196 c 256
 811 1196 884 1127 839 931 c 258
 830 892 l 258
 785 696 640 602 394 602 c 256
 194 602 97 682 107 772 c 256
 116 853 181 892 263 892 c 258
EndSplineSet
EndChar

StartChar: uni2076
Encoding: 8310 8310 134
Width: 843
VWidth: 1920
Flags: HMW
LayerCount: 2
Fore
SplineSet
544 1014 m 256
 478 1014 434 981 423 931 c 258
 415 895 l 257
 372 943 l 257
 409 1101 503 1164 681 1164 c 256
 877 1164 940 1068 902 904 c 258
 895 874 l 258
 856 707 685 609 450 609 c 256
 164 609 85 730 135 946 c 258
 179 1136 l 258
 232 1364 392 1491 648 1491 c 256
 892 1491 961 1390 941 1304 c 258
 940 1303 l 258
 922 1227 844 1195 786 1195 c 258
 780 1195 l 258
 692 1195 657 1221 665 1255 c 258
 665 1256 l 258
 670 1276 654 1281 612 1281 c 256
 536 1281 491 1223 470 1133 c 258
 417 907 l 258
 405 853 428 819 492 819 c 256
 563 819 597 856 608 904 c 258
 611 916 l 258
 622 966 610 1014 544 1014 c 256
EndSplineSet
EndChar

StartChar: uni2077
Encoding: 8311 8311 135
Width: 719
VWidth: 1920
Flags: HMW
LayerCount: 2
Fore
SplineSet
870 1266 m 258
 627 828 l 258
 557 703 497 612 379 612 c 258
 373 612 l 258
 249 612 226 730 314 840 c 258
 602 1200 l 257
 356 1200 l 258
 220 1200 187 1244 207 1332 c 258
 208 1338 l 258
 228 1426 282 1470 418 1470 c 258
 754 1470 l 258
 914 1470 948 1406 870 1266 c 258
EndSplineSet
EndChar

StartChar: uni2078
Encoding: 8312 8312 136
Width: 816
VWidth: 1920
Flags: HMW
LayerCount: 2
Fore
SplineSet
476 816 m 256
 530 816 564 843 575 889 c 258
 576 892 l 258
 587 938 565 966 511 966 c 256
 457 966 423 938 412 892 c 258
 411 889 l 258
 400 843 422 816 476 816 c 256
560 1176 m 256
 590 1176 616 1199 624 1232 c 258
 625 1235 l 258
 631 1263 613 1284 584 1284 c 256
 555 1284 527 1263 521 1235 c 258
 520 1232 l 258
 512 1199 530 1176 560 1176 c 256
558 1086 m 257
 816 1086 896 1004 864 865 c 258
 857 838 l 258
 823 690 704 609 429 609 c 256
 184 609 71 690 105 838 c 258
 112 865 l 258
 144 1004 292 1086 520 1086 c 257
 516 1062 l 257
 297 1065 203 1132 234 1265 c 258
 238 1280 l 258
 269 1413 411 1491 632 1491 c 256
 883 1491 961 1413 930 1280 c 258
 926 1265 l 258
 895 1132 801 1065 550 1062 c 257
 558 1086 l 257
EndSplineSet
EndChar

StartChar: uni2079
Encoding: 8313 8313 137
Width: 843
VWidth: 1920
Flags: HMW
LayerCount: 2
Fore
SplineSet
544 1086 m 256
 610 1086 654 1119 665 1169 c 258
 674 1205 l 257
 716 1157 l 257
 679 999 585 936 407 936 c 256
 211 936 148 1032 186 1196 c 258
 193 1226 l 258
 232 1393 403 1491 638 1491 c 256
 924 1491 1003 1370 953 1154 c 258
 909 964 l 258
 856 736 684 609 428 609 c 256
 136 609 86 710 103 784 c 258
 103 785 l 258
 121 861 178 905 272 905 c 258
 278 905 l 258
 366 905 389 879 381 845 c 258
 381 844 l 258
 376 824 416 819 458 819 c 256
 534 819 598 877 619 967 c 258
 671 1193 l 258
 683 1247 660 1281 596 1281 c 256
 525 1281 491 1244 480 1196 c 258
 477 1184 l 258
 466 1134 478 1086 544 1086 c 256
EndSplineSet
EndChar

StartChar: uni00B9
Encoding: 185 185 138
Width: 368
VWidth: 1920
Flags: HMW
LayerCount: 2
Fore
SplineSet
317 1441 m 4
 354 1451 361 1458 375 1474 c 4
 397 1500 428 1510 472 1510 c 2
 474 1510 l 2
 528 1510 547 1458 535 1404 c 2
 395 796 l 2
 366 672 300 610 216 610 c 2
 194 610 l 2
 110 610 72 672 101 796 c 2
 212 1278 l 2
 236 1382 261 1426 317 1441 c 4
EndSplineSet
EndChar

StartChar: cent
Encoding: 162 162 154
Width: 1097
VWidth: 1920
Flags: HMW
LayerCount: 2
Fore
SplineSet
822 1240 m 262
 832 1240 l 262
 849 1240 864 1227 855 1190 c 262
 548 -140 l 262
 539 -177 519 -190 502 -190 c 262
 492 -190 l 262
 475 -190 459 -177 468 -140 c 262
 775 1190 l 262
 784 1227 805 1240 822 1240 c 262
EndSplineSet
Refer: 40 99 N 1 0 0 1 0 0 2
EndChar

StartChar: uni203D
Encoding: 8253 8253 157
Width: 1640
VWidth: 1920
Flags: HMW
LayerCount: 2
Fore
SplineSet
686 870 m 2
 688 880 l 2
 713 987 815 1070 942 1070 c 2
 952 1070 l 2
 1079 1070 1123 987 1098 880 c 2
 1096 870 l 2
 1081 803 1063 774 1006 680 c 2
 921 540 l 2
 919 533 877 500 870 500 c 2
 860 500 l 2
 723 500 709 545 696 640 c 2
 689 690 l 2
 679 767 671 803 686 870 c 2
835 -40 m 6
 805 -40 l 6
 628 -40 525 53 525 200 c 6
 525 210 l 6
 525 357 628 450 805 450 c 6
 835 450 l 6
 1012 450 1115 357 1115 210 c 6
 1115 200 l 6
 1115 53 1012 -40 835 -40 c 6
875 500 m 2
 865 500 l 2
 858 500 733 533 733 539 c 0
 753 811 1121 848 1152 983 c 258
 1155 998 l 258
 1167 1048 1136 1085 949 1085 c 256
 779 1085 689 1055 679 1012 c 258
 677 1007 l 2
 666 960 610 902 453 902 c 2
 443 902 l 2
 306 902 200 975 225 1082 c 2
 227 1092 l 258
 272 1286 523 1435 1070 1435 c 256
 1547 1435 1791 1323 1740 1103 c 258
 1734 1078 l 258
 1659 755 1248 735 1136 628 c 0
 1037 534 992 500 875 500 c 2
EndSplineSet
EndChar

StartChar: ordfeminine
Encoding: 170 170 159
Width: 948
VWidth: 1920
Flags: HMW
LayerCount: 2
Fore
SplineSet
475 892 m 0
 466 854 478 821 527 821 c 256
 577 821 609 865 625 933 c 257
 679 827 l 257
 651 705 507 609 338 609 c 256
 164 609 65 693 102 852 c 0
 147 1047 334 1115 544 1139 c 256
 657 1152 681 1175 687 1201 c 257
 670 1023 l 257
 661 985 608 973 568 964 c 256
 516 952 484 930 475 892 c 0
590 779 m 258
 692 1221 l 258
 698 1245 681 1271 642 1271 c 256
 611 1271 592 1261 580 1242 c 0
 551 1195 513 1177 409 1177 c 2
 399 1177 l 2
 295 1177 267 1241 321 1322 c 0
 360 1381 497 1489 734 1489 c 256
 1020 1489 1085 1375 1048 1214 c 258
 969 869 l 258
 954 802 942 740 945 708 c 0
 951 635 896 614 792 614 c 2
 762 614 l 2
 658 614 617 632 602 664 c 0
 589 692 577 722 590 779 c 258
EndSplineSet
EndChar

StartChar: exclamdown
Encoding: 161 161 160
Width: 740
VWidth: 1920
Flags: HMW
LayerCount: 2
Fore
SplineSet
435 1090 m 6
 465 1090 l 6
 642 1090 745 987 745 840 c 6
 745 800 l 6
 745 653 642 550 465 550 c 6
 435 550 l 6
 258 550 155 653 155 800 c 6
 155 840 l 6
 155 987 258 1090 435 1090 c 6
525 -130 m 2
 518 -160 l 2
 482 -317 323 -430 166 -430 c 2
 136 -430 l 2
 -21 -430 -128 -317 -92 -160 c 2
 -85 -130 l 2
 -60 -23 -26 54 60 190 c 2
 185 390 l 2
 243 483 288 520 365 520 c 2
 375 520 l 2
 452 520 480 483 495 390 c 2
 528 190 l 2
 551 54 550 -23 525 -130 c 2
EndSplineSet
EndChar

StartChar: AE
Encoding: 198 198 161
Width: 2268
VWidth: 1920
Flags: HMW
LayerCount: 2
Fore
SplineSet
488 570 m 257
 1158 570 l 257
 1158 320 l 257
 488 320 l 257
 488 570 l 257
1506 1400 m 1
 407 160 l 2
 278 15 208 -30 111 -30 c 2
 101 -30 l 2
 -6 -30 -86 67 86 260 c 2
 957 1240 l 2
 1055 1350 1150 1400 1307 1400 c 2
 1506 1400 l 1
EndSplineSet
Refer: 16 69 N 1 0 0 1 958 0 2
EndChar

StartChar: questiondown
Encoding: 191 191 162
Width: 1320
VWidth: 1920
Flags: HMW
LayerCount: 2
Fore
SplineSet
755 1090 m 6
 785 1090 l 6
 962 1090 1065 997 1065 850 c 6
 1065 840 l 6
 1065 693 962 600 785 600 c 6
 755 600 l 6
 578 600 475 693 475 840 c 6
 475 850 l 6
 475 997 578 1090 755 1090 c 6
675 540 m 2
 685 540 l 2
 792 540 871 489 800 361 c 0
 730 235 514 172 490 67 c 258
 487 52 l 258
 475 2 496 -35 553 -35 c 256
 613 -35 646 5 654 38 c 258
 654 40 l 2
 667 97 727 148 894 148 c 2
 904 148 l 2
 1071 148 1145 85 1120 -22 c 2
 1118 -32 l 258
 1073 -226 849 -385 452 -385 c 256
 55 -385 -148 -273 -97 -53 c 258
 -91 -28 l 258
 -16 295 316 298 449 418 c 0
 553 512 608 540 675 540 c 2
EndSplineSet
EndChar

StartChar: yen
Encoding: 165 165 163
Width: 1447
VWidth: 1920
Flags: HMW
LayerCount: 2
Fore
SplineSet
105.0390625 335 m 14
 105.0390625 340 l 22
 105.0390625 377 138.0390625 400 215.0390625 400 c 14
 1185.0390625 400 l 22
 1262.0390625 400 1295.0390625 377 1295.0390625 340 c 14
 1295.0390625 335 l 22
 1295.0390625 298 1262.0390625 275 1185.0390625 275 c 14
 215.0390625 275 l 22
 138.0390625 275 105.0390625 298 105.0390625 335 c 14
165.0390625 605 m 10
 165.0390625 610 l 18
 165.0390625 647 198.0390625 670 275.0390625 670 c 10
 1245.0390625 670 l 18
 1322.0390625 670 1355.0390625 647 1355.0390625 610 c 10
 1355.0390625 605 l 18
 1355.0390625 568 1322.0390625 545 1245.0390625 545 c 10
 275.0390625 545 l 18
 198.0390625 545 165.0390625 568 165.0390625 605 c 10
EndSplineSet
Refer: 36 89 N 1 0 0 1 0 0 2
EndChar

StartChar: gravecomb
Encoding: 768 768 164
Width: 0
Flags: HMW
AnchorPoint: "top" -452 1000 mark 0
LayerCount: 2
Fore
SplineSet
-361 1054 m 6
 -371 1054 l 6
 -458 1054 -552 1121 -648 1204 c 6
 -678 1230 l 6
 -802 1339 -666 1430 -509 1430 c 6
 -499 1430 l 6
 -342 1430 -284 1390 -279 1290 c 6
 -276 1214 l 6
 -271 1105 -304 1054 -361 1054 c 6
EndSplineSet
EndChar

StartChar: acutecomb
Encoding: 769 769 165
Width: 0
Flags: HMW
AnchorPoint: "top" -437 1000 mark 0
LayerCount: 2
Fore
SplineSet
-500 1054 m 6
 -557 1054 -566 1105 -511 1214 c 6
 -472 1290 l 6
 -422 1390 -345 1430 -188 1430 c 6
 -178 1430 l 6
 -21 1430 73 1339 -101 1230 c 6
 -143 1204 l 6
 -277 1121 -403 1054 -490 1054 c 6
 -500 1054 l 6
EndSplineSet
EndChar

StartChar: uni0302
Encoding: 770 770 166
Width: 0
VWidth: 1920
Flags: HMW
AnchorPoint: "top" -448 1000 mark 0
LayerCount: 2
Fore
SplineSet
-405 1191 m 261
 -414 1180 l 6
 -478 1096 -541 1070 -628 1070 c 6
 -633 1070 l 6
 -750 1070 -766 1149 -668 1260 c 6
 -641 1290 l 6
 -572 1367 -494 1400 -387 1400 c 6
 -327 1400 l 6
 -220 1400 -153 1367 -119 1290 c 6
 -106 1260 l 6
 -57 1152 -101 1070 -223 1070 c 6
 -228 1070 l 6
 -318 1070 -371 1102 -401 1180 c 6
 -405 1191 l 261
EndSplineSet
EndChar

StartChar: tildecomb
Encoding: 771 771 167
Width: 0
Flags: HMW
AnchorPoint: "top" -467 1000 mark 0
LayerCount: 2
Fore
SplineSet
-493 1189 m 256
 -515 1189 -538 1179 -555 1147 c 0
 -574 1111 -599 1078 -676 1078 c 6
 -686 1078 l 6
 -763 1078 -784 1111 -759 1217 c 0
 -727 1355 -599 1429 -508 1429 c 256
 -379 1429 -348 1322 -296 1322 c 256
 -274 1322 -253 1333 -234 1363 c 0
 -217 1390 -190 1433 -113 1433 c 2
 -104 1433 l 2
 -37 1433 -4 1410 -29 1303 c 0
 -61 1165 -191 1082 -281 1082 c 256
 -410 1082 -441 1189 -493 1189 c 256
EndSplineSet
EndChar

StartChar: uni0304
Encoding: 772 772 168
Width: 0
VWidth: 1920
Flags: HMW
AnchorPoint: "top" -400 1000 mark 0
LayerCount: 2
Fore
SplineSet
-640 1210 m 14
 -640 1215 l 22
 -640 1302 -587 1330 -480 1330 c 14
 -200 1330 l 22
 -93 1330 -40 1302 -40 1215 c 14
 -40 1210 l 22
 -40 1123 -93 1095 -200 1095 c 14
 -480 1095 l 22
 -587 1095 -640 1123 -640 1210 c 14
EndSplineSet
EndChar

StartChar: uni0306
Encoding: 774 774 169
Width: 0
VWidth: 1920
Flags: HMW
AnchorPoint: "top" -449 1000 mark 0
LayerCount: 2
Fore
SplineSet
-365 1365 m 4
 -310 1365 -295 1390 -285 1407 c 4
 -263 1445 -211 1478 -124 1478 c 6
 -119 1478 l 6
 -42 1478 17 1434 -14 1354 c 4
 -58 1242 -164 1095 -427 1095 c 4
 -690 1095 -721 1233 -722 1347 c 4
 -723 1423 -636 1478 -559 1478 c 6
 -554 1478 l 6
 -467 1478 -430 1445 -426 1405 c 4
 -424 1386 -418 1365 -365 1365 c 4
EndSplineSet
EndChar

StartChar: uni0307
Encoding: 775 775 170
Width: 0
Flags: HMW
AnchorPoint: "top" -557 950 mark 0
LayerCount: 2
Fore
SplineSet
-545 1000 m 2
 -555 1000 l 2
 -702 1000 -795 1093 -795 1210 c 2
 -795 1230 l 2
 -795 1347 -702 1440 -555 1440 c 2
 -545 1440 l 2
 -398 1440 -305 1347 -305 1230 c 2
 -305 1210 l 2
 -305 1093 -398 1000 -545 1000 c 2
EndSplineSet
EndChar

StartChar: uni0308
Encoding: 776 776 171
Width: 0
Flags: HMW
AnchorPoint: "top" -588 950 mark 0
LayerCount: 2
Fore
SplineSet
-775 1000 m 2
 -785 1000 l 2
 -902 1000 -975 1083 -975 1210 c 2
 -975 1230 l 2
 -975 1357 -902 1440 -785 1440 c 2
 -775 1440 l 2
 -658 1440 -585 1357 -585 1230 c 2
 -585 1210 l 2
 -585 1083 -658 1000 -775 1000 c 2
-325 1000 m 2
 -335 1000 l 2
 -452 1000 -525 1083 -525 1210 c 2
 -525 1230 l 2
 -525 1357 -452 1440 -335 1440 c 2
 -325 1440 l 2
 -208 1440 -135 1357 -135 1230 c 2
 -135 1210 l 2
 -135 1083 -208 1000 -325 1000 c 2
EndSplineSet
EndChar

StartChar: uni030A
Encoding: 778 778 172
Width: 0
Flags: HMW
AnchorPoint: "top" -614 1000 mark 0
LayerCount: 2
Fore
SplineSet
-360 1312 m 0
 -360 1208 -450 1122 -554 1122 c 0
 -660 1122 -750 1206 -750 1312 c 0
 -750 1414 -660 1502 -554 1502 c 0
 -448 1502 -360 1420 -360 1312 c 0
-454 1312 m 0
 -454 1368 -500 1407 -554 1407 c 0
 -608 1407 -654 1362 -654 1312 c 0
 -654 1258 -608 1217 -554 1217 c 0
 -502 1217 -454 1262 -454 1312 c 0
EndSplineSet
EndChar

StartChar: uni030B
Encoding: 779 779 173
Width: 0
Flags: HMW
AnchorPoint: "top" -507.132 1000 mark 0
LayerCount: 2
Fore
SplineSet
-284 1054 m 6
 -341 1054 -350 1105 -295 1214 c 6
 -256 1290 l 6
 -206 1390 -129 1430 28 1430 c 6
 38 1430 l 6
 195 1430 289 1339 115 1230 c 6
 73 1204 l 6
 -61 1121 -187 1054 -274 1054 c 6
 -284 1054 l 6
-794 1054 m 6
 -851 1054 -860 1105 -805 1214 c 6
 -766 1290 l 6
 -716 1390 -639 1430 -482 1430 c 6
 -472 1430 l 6
 -315 1430 -221 1339 -395 1230 c 6
 -437 1204 l 6
 -571 1121 -697 1054 -784 1054 c 6
 -794 1054 l 6
EndSplineSet
EndChar

StartChar: uni030C
Encoding: 780 780 174
Width: 0
Flags: HMW
AnchorPoint: "top" -443.132 1000 mark 0
LayerCount: 2
Fore
SplineSet
-367 1329 m 257
 -359 1340 l 2
 -295 1424 -231 1450 -144 1450 c 2
 -139 1450 l 2
 -22 1450 -6 1371 -104 1260 c 2
 -131 1230 l 2
 -200 1153 -278 1120 -385 1120 c 2
 -445 1120 l 2
 -552 1120 -619 1153 -653 1230 c 2
 -666 1260 l 2
 -715 1368 -671 1450 -549 1450 c 2
 -544 1450 l 2
 -454 1450 -402 1418 -372 1340 c 2
 -367 1329 l 257
EndSplineSet
EndChar

StartChar: uni030F
Encoding: 783 783 175
Width: 0
Flags: HMW
AnchorPoint: "top" -397 1000 mark 0
LayerCount: 2
Fore
SplineSet
-71 1054 m 2
 -81 1054 l 2
 -168 1054 -262 1121 -358 1204 c 2
 -388 1230 l 2
 -512 1339 -376 1430 -219 1430 c 2
 -209 1430 l 2
 -52 1430 6 1390 11 1290 c 2
 14 1214 l 2
 19 1105 -14 1054 -71 1054 c 2
-561 1054 m 6
 -571 1054 l 6
 -658 1054 -752 1121 -848 1204 c 6
 -878 1230 l 6
 -1002 1339 -866 1430 -709 1430 c 6
 -699 1430 l 6
 -542 1430 -484 1390 -479 1290 c 6
 -476 1214 l 6
 -471 1105 -504 1054 -561 1054 c 6
EndSplineSet
EndChar

StartChar: uni0311
Encoding: 785 785 176
Width: 0
Flags: HMW
AnchorPoint: "top" -493 1000 mark 0
LayerCount: 2
Fore
SplineSet
-437 1245 m 0
 -492 1245 -506 1220 -516 1203 c 0
 -538 1165 -591 1132 -678 1132 c 2
 -683 1132 l 2
 -760 1132 -818 1176 -787 1256 c 0
 -743 1368 -637 1515 -374 1515 c 0
 -111 1515 -80 1377 -79 1263 c 0
 -78 1187 -166 1132 -243 1132 c 2
 -248 1132 l 2
 -335 1132 -372 1165 -376 1205 c 0
 -378 1224 -384 1245 -437 1245 c 0
EndSplineSet
EndChar

StartChar: dotbelowcomb
Encoding: 803 803 177
Width: 0
Flags: HMW
AnchorPoint: "bottom" -501 0 mark 0
LayerCount: 2
Fore
SplineSet
-545 -490 m 2
 -555 -490 l 2
 -702 -490 -795 -397 -795 -280 c 2
 -795 -260 l 2
 -795 -143 -702 -50 -555 -50 c 2
 -545 -50 l 2
 -398 -50 -305 -143 -305 -260 c 2
 -305 -280 l 2
 -305 -397 -398 -490 -545 -490 c 2
EndSplineSet
EndChar

StartChar: uni0326
Encoding: 806 806 178
Width: 0
Flags: HMW
AnchorPoint: "bottom" -561 0 mark 0
LayerCount: 2
Fore
SplineSet
-850 -699 m 14
 -856 -699 l 22
 -885 -699 -901 -657 -856 -612 c 14
 -698 -454 l 261
 -700 -454 l 6
 -754 -454 -832 -390 -832 -304 c 6
 -832 -272 l 6
 -832 -156 -751 -59 -611 -59 c 6
 -587 -59 l 6
 -447 -59 -366 -140 -366 -256 c 6
 -366 -280 l 6
 -366 -404 -494 -492 -563 -533 c 6
 -737 -636 l 22
 -794 -670 -820 -699 -850 -699 c 14
EndSplineSet
EndChar

StartChar: uni0327
Encoding: 807 807 179
Width: 1200
Flags: HMW
AnchorPoint: "bottom" -651 0 mark 0
LayerCount: 2
Fore
SplineSet
-903 -650 m 4
 -1042 -650 -1084 -636 -1144 -619 c 4
 -1217 -599 -1231 -544 -1201 -454 c 6
 -1198 -444 l 6
 -1168 -355 -1075 -312 -1010 -322 c 4
 -964 -329 -928 -339 -869 -339 c 4
 -825 -339 -787 -319 -782 -297 c 4
 -778 -281 -782 -241 -935 -240 c 4
 -968 -240 -984 -233 -986 -225 c 6
 -986 -223 l 6
 -991 -206 -977 -184 -941 -145 c 6
 -753 60 l 5
 -411 60 l 5
 -632 -172 l 5
 -615 -167 -598 -164 -583 -164 c 4
 -497 -164 -411 -182 -453 -362 c 4
 -506 -590 -699 -650 -903 -650 c 4
EndSplineSet
EndChar

StartChar: uni0328
Encoding: 808 808 180
Width: 1200
Flags: HMW
AnchorPoint: "ogonek" -671 0 mark 0
LayerCount: 2
Fore
SplineSet
-539 -370 m 6
 -542 -380 l 6
 -567 -487 -623 -540 -730 -540 c 6
 -740 -540 l 6
 -878 -540 -1144 -488 -1096 -280 c 4
 -1046 -62 -808 -2 -631 70 c 5
 -585 0 l 5
 -699 -44 -744 -96 -756 -150 c 4
 -766 -192 -741 -200 -651 -200 c 6
 -650 -200 l 6
 -543 -200 -515 -264 -539 -370 c 6
EndSplineSet
EndChar

StartChar: uni0312
Encoding: 786 786 181
Width: 0
Flags: HMW
AnchorPoint: "top" -624 900 mark 0
LayerCount: 2
Fore
SplineSet
-344 1626 m 10
 -338 1626 l 18
 -308 1626 -293 1583 -338 1538 c 10
 -497 1379 l 257
 -496 1379 l 2
 -441 1379 -362 1314 -362 1227 c 2
 -362 1195 l 2
 -362 1078 -444 980 -585 980 c 2
 -609 980 l 2
 -750 980 -832 1062 -832 1179 c 2
 -832 1203 l 2
 -832 1328 -704 1417 -634 1458 c 2
 -458 1562 l 18
 -401 1596 -374 1626 -344 1626 c 10
EndSplineSet
EndChar

StartChar: sterling
Encoding: 163 163 182
Width: 1420
VWidth: 1920
Flags: HMW
LayerCount: 2
Fore
SplineSet
57 685 m 14
 57 700 l 22
 57 807 140 850 247 850 c 14
 937 850 l 22
 1044 850 1127 807 1127 700 c 14
 1127 685 l 22
 1127 578 1044 535 937 535 c 14
 247 535 l 22
 140 535 57 578 57 685 c 14
124 392 m 0
 225 440 312 495 340 614 c 0
 381 792 194 795 251 1043 c 0
 304 1273 589 1435 926 1435 c 0
 1270 1435 1415 1268 1428 1121 c 0
 1441 979 1318 913 1181 913 c 2
 1171 913 l 2
 1064 913 982 963 967 1031 c 0
 960 1064 923 1095 868 1095 c 0
 791 1095 735 1063 719 993 c 0
 691 872 854 850 807 644 c 0
 767 472 623 411 491 355 c 1
 1072 355 l 2
 1229 355 1309 297 1282 180 c 2
 1280 175 l 2
 1253 58 1147 0 990 0 c 2
 160 0 l 2
 3 0 -60 83 -38 180 c 2
 -33 205 l 2
 -14 289 12 338 124 392 c 0
EndSplineSet
EndChar

StartChar: currency
Encoding: 164 164 183
Width: 1112
Flags: HMW
LayerCount: 2
Fore
SplineSet
1176 1182 m 14
 1188 1167 l 22
 1246 1091 1198 1002 1104 926 c 14
 1035 870 l 22
 1029 865 1025 865 1021 870 c 14
 845 1098 l 22
 841 1103 843 1107 849 1112 c 14
 918 1168 l 22
 1012 1244 1118 1258 1176 1182 c 14
166 546 m 14
 341 318 l 22
 345 313 344 309 338 304 c 14
 269 248 l 22
 175 172 80 143 22 219 c 14
 10 235 l 22
 -48 311 -11 414 83 490 c 14
 152 546 l 22
 158 551 162 551 166 546 c 14
219 1173 m 14
 239 1190 l 22
 333 1266 424 1244 482 1168 c 14
 525 1112 l 22
 529 1107 527 1103 521 1098 c 14
 241 869 l 22
 235 864 231 864 227 869 c 14
 183 926 l 22
 125 1002 125 1097 219 1173 c 14
664 318 m 14
 860 476 l 22
 866 481 956 551 960 546 c 14
 1003 490 l 22
 1061 414 1062 318 968 242 c 14
 947 226 l 22
 853 150 763 171 705 247 c 14
 661 304 l 22
 657 309 658 313 664 318 c 14
107 710 m 0
 169 979 441 1200 710 1200 c 0
 979 1200 1149 979 1087 710 c 0
 1025 441 753 220 484 220 c 0
 215 220 45 441 107 710 c 0
467 710 m 0
 446 621 476 570 565 570 c 0
 654 570 706 621 727 710 c 0
 748 799 718 850 629 850 c 0
 540 850 488 799 467 710 c 0
EndSplineSet
EndChar

StartChar: brokenbar
Encoding: 166 166 184
Width: 515
VWidth: 1920
Flags: HMW
LayerCount: 2
Fore
SplineSet
234 460 m 10
 254 460 l 18
 361 460 396 337 369 220 c 10
 283 -150 l 18
 258 -257 165 -390 58 -390 c 10
 38 -390 l 18
 -69 -390 -102 -257 -77 -150 c 10
 9 220 l 18
 36 337 127 460 234 460 c 10
504 1630 m 14
 524 1630 l 22
 631 1630 666 1507 639 1390 c 14
 553 1020 l 22
 528 913 435 780 328 780 c 14
 308 780 l 22
 201 780 168 913 193 1020 c 14
 279 1390 l 22
 306 1507 397 1630 504 1630 c 14
EndSplineSet
EndChar

StartChar: section
Encoding: 167 167 185
Width: 1186
VWidth: 1920
Flags: HMW
LayerCount: 2
Fore
SplineSet
609 850 m 257
 534 850 456 786 429 668 c 256
 397 531 448 474 606 371 c 256
 815 235 948 187 895 -43 c 256
 844 -265 638 -400 361 -400 c 256
 163 -400 65 -323 32 -207 c 0
 -7 -71 58 2 165 2 c 6
 174 2 l 6
 261 2 279 -51 288 -108 c 0
 294 -147 320 -165 363 -165 c 256
 411 -165 453 -140 462 -100 c 256
 471 -62 426 -39 323 12 c 256
 58 143 -24 306 35 563 c 256
 98 835 375 930 639 930 c 257
 609 850 l 257
576 185 m 257
 651 185 729 249 756 367 c 256
 788 504 737 561 579 664 c 256
 370 800 237 848 290 1078 c 256
 341 1300 547 1435 824 1435 c 256
 1022 1435 1120 1358 1153 1242 c 0
 1192 1106 1126 1033 1019 1033 c 2
 1010 1033 l 2
 923 1033 906 1086 897 1143 c 0
 891 1182 865 1200 822 1200 c 256
 774 1200 732 1175 723 1135 c 256
 714 1097 759 1074 862 1023 c 256
 1127 892 1209 729 1150 472 c 256
 1087 200 810 105 546 105 c 257
 576 185 l 257
EndSplineSet
EndChar

StartChar: copyright
Encoding: 169 169 186
Width: 1484
Flags: HMW
LayerCount: 2
Fore
SplineSet
1130 507 m 256
 1068 367 922 229 684 229 c 256
 392 229 304 393 357 621 c 258
 380 720 l 258
 433 948 595 1111 887 1111 c 256
 1125 1111 1178 992 1195 888 c 256
 1209 804 1149 756 1091 756 c 258
 1061 756 l 258
 1009 756 986 790 980 828 c 256
 972 875 934 907 870 907 c 256
 782 907 711 852 682 726 c 258
 656 615 l 258
 626 483 667 433 767 433 c 256
 849 433 881 456 917 525 c 256
 938 564 991 627 1055 627 c 258
 1073 627 l 258
 1149 627 1159 571 1130 507 c 256
1473 668 m 0
 1384 284 999 -28 615 -28 c 0
 231 -28 -10 284 79 668 c 0
 168 1052 552 1366 936 1366 c 0
 1320 1366 1562 1052 1473 668 c 0
1387 668 m 0
 1465 1006 1255 1280 917 1280 c 0
 579 1280 243 1006 165 668 c 0
 87 330 296 58 634 58 c 0
 972 58 1309 330 1387 668 c 0
EndSplineSet
EndChar

StartChar: registered
Encoding: 174 174 188
Width: 1484
Flags: HMW
LayerCount: 2
Fore
SplineSet
747 890 m 261
 705 704 l 261
 765 704 l 262
 841 704 867 742 879 796 c 262
 879 798 l 262
 890 846 883 890 807 890 c 262
 747 890 l 261
916 1100 m 262
 1160 1100 1223 987 1191 849 c 262
 1188 835 l 262
 1155 691 998 608 802 608 c 261
 811 644 l 261
 1025 644 1146 627 1113 483 c 262
 1111 475 l 262
 1104 443 1105 416 1107 397 c 260
 1108 381 1110 354 1103 322 c 262
 1103 319 l 262
 1091 267 1052 242 964 242 c 262
 946 242 l 262
 855 242 796 260 791 343 c 260
 789 375 789 405 801 457 c 262
 807 483 l 262
 818 531 806 554 742 554 c 262
 670 554 l 261
 635 404 l 262
 611 298 548 242 454 242 c 262
 448 242 l 262
 354 242 317 298 341 404 c 262
 459 914 l 262
 488 1038 564 1100 688 1100 c 262
 916 1100 l 262
1473 668 m 0
 1384 284 999 -28 615 -28 c 0
 231 -28 -10 284 79 668 c 0
 168 1052 552 1366 936 1366 c 0
 1320 1366 1562 1052 1473 668 c 0
1387 668 m 0
 1465 1006 1255 1280 917 1280 c 0
 579 1280 243 1006 165 668 c 0
 87 330 296 58 634 58 c 0
 972 58 1309 330 1387 668 c 0
EndSplineSet
EndChar

StartChar: dotlessi
Encoding: 305 305 279
Width: 575
VWidth: 1872
Flags: HMW
AnchorPoint: "top" 380 1050 basechar 0
LayerCount: 2
Fore
SplineSet
595 820 m 258
 459 230 l 258
 418 53 340 -30 193 -30 c 258
 183 -30 l 258
 36 -30 -58 53 -17 230 c 258
 119 820 l 258
 160 997 242 1080 389 1080 c 258
 399 1080 l 258
 546 1080 636 997 595 820 c 258
EndSplineSet
EndChar

StartChar: uni0237
Encoding: 567 567 291
Width: 575
VWidth: 1872
Flags: HMW
AnchorPoint: "top" 371 1050 basechar 0
LayerCount: 2
Fore
SplineSet
387 -55 m 2
 310.765625 -383.3203125 100 -430 -84 -430 c 0
 -373 -430 -440 -302.520507812 -440 -196 c 0
 -440 -109 -380 -69 -313 -69 c 2
 -307 -69 l 2
 -240 -69 -220.84375 -98.8056640625 -211 -124 c 0
 -201.909179688 -147.268554688 -181 -156 -162 -156 c 0
 -114 -156 -90 -84 -66 21 c 2
 119 820 l 2
 160.242190206 997.902702133 242 1080 389 1080 c 2
 399 1080 l 2
 546 1080 637.40598221 997.795914996 595 820 c 2
 387 -55 l 2
EndSplineSet
EndChar

StartChar: kgreenlandic
Encoding: 312 312 298
Width: 1302
VWidth: 1872
Flags: HMW
LayerCount: 2
Fore
SplineSet
389 1080 m 262
 399 1080 l 262
 546 1080 635 997 594 820 c 262
 459 230 l 258
 420 63 330 -30 183 -30 c 258
 173 -30 l 258
 26 -30 -56 63 -17 230 c 258
 119 820 l 262
 160 997 242 1080 389 1080 c 262
252 461 m 257
 715 900 l 258
 847 1022 908 1080 1016 1080 c 258
 1020 1080 l 258
 1197 1080 1252 903 1127 800 c 258
 450 234 l 257
 252 461 l 257
498 650 m 257
 946 708 l 257
 1136 306 l 258
 1215.62347752 137.533484401 1115 -30 938 -30 c 258
 928 -30 l 258
 750 -30 670 61 626 207 c 258
 498 650 l 257
EndSplineSet
EndChar

StartChar: grave
Encoding: 96 96 339
Width: 773
VWidth: 0
Flags: HMW
LayerCount: 2
Fore
SplineSet
759 1054 m 2
 749 1054 l 2
 662 1054 568 1121 472 1204 c 2
 442 1230 l 2
 318 1339 454 1430 611 1430 c 6
 621 1430 l 2
 778 1430 836 1390 841 1290 c 2
 844 1214 l 2
 849 1105 816 1054 759 1054 c 2
EndSplineSet
EndChar

StartChar: longs
Encoding: 383 383 352
Width: 748
VWidth: 1872
Flags: HMW
LayerCount: 2
Fore
SplineSet
281 1188 m 262
 348.635459759 1480.20038514 705.424109712 1513.70730911 926 1442 c 4
 981.674299401 1423.90076807 1001 1377.71582031 1001 1341 c 6
 1001 1338 l 6
 1001 1230.98730469 942.035051704 1204.94681331 884 1226 c 4
 762.535268196 1270.06336514 751.776367188 1182.80761719 723 1058 c 262
 446 -140 l 6
 415.879853689 -270.266914372 342 -390 195 -390 c 6
 183 -390 l 6
 6 -390 -58.3095507385 -279.762486582 -26 -140 c 6
 281 1188 l 262
EndSplineSet
EndChar

StartChar: uni0259
Encoding: 601 601 359
Width: 1258
VWidth: 1920
Flags: HMW
LayerCount: 2
Fore
SplineSet
150 851 m 260
 252 975 456 1085 757 1085 c 260
 1126 1085 1324 912 1252 602 c 262
 1216 447 l 262
 1147 147 868 -35 491 -35 c 260
 154 -35 -2 143 -2 326 c 260
 -2 356 4 393 7 407 c 260
 45 572 140 615 297 615 c 262
 981 615 l 261
 942 445 l 261
 482 445 l 261
 454 303 488 245 561 245 c 260
 628 245 691 297 719 417 c 262
 769 632 l 262
 804 782 762 805 685 805 c 260
 623 805 580 787 554 768 c 260
 492 722 415 662 288 662 c 262
 277 662 l 262
 145 662 61 743 150 851 c 260
EndSplineSet
EndChar

StartChar: logicalnot
Encoding: 172 172 373
Width: 1150
VWidth: 2048
Flags: HMW
LayerCount: 2
Fore
SplineSet
81 655 m 2
 89 690 l 2
 114 797 209 850 316 850 c 2
 896 850 l 2
 1103 850 1144 797 1096 590 c 2
 1070 475 l 2
 1045 368 973 285 866 285 c 2
 796 285 l 2
 689 285 655 368 680 475 c 2
 684 495 l 1
 234 495 l 2
 127 495 56 548 81 655 c 2
EndSplineSet
EndChar

StartChar: acute
Encoding: 180 180 374
Width: 773
Flags: HMW
LayerCount: 2
Fore
SplineSet
260 1054 m 6
 203 1054 194 1105 249 1214 c 6
 288 1290 l 6
 338 1390 415 1430 572 1430 c 6
 582 1430 l 6
 739 1430 833 1339 659 1230 c 6
 617 1204 l 6
 483 1121 357 1054 270 1054 c 6
 260 1054 l 6
EndSplineSet
EndChar

StartChar: degree
Encoding: 176 176 376
Width: 980
VWidth: 2048
Flags: HMW
LayerCount: 2
Fore
SplineSet
157 983 m 258
 165 1018 l 258
 225 1278 449 1435 696 1435 c 260
 943 1435 1105 1278 1045 1018 c 258
 1037 983 l 258
 977 723 742 565 495 565 c 260
 248 565 97 723 157 983 c 258
512 983 m 258
 496 913 527 885 574 885 c 256
 621 885 666 913 682 983 c 258
 690 1018 l 258
 706 1088 674 1115 627 1115 c 256
 580 1115 536 1088 520 1018 c 258
 512 983 l 258
EndSplineSet
EndChar

StartChar: plusminus
Encoding: 177 177 377
Width: 1168
Flags: HMW
LayerCount: 2
Fore
SplineSet
15 260 m 14
 15 295 l 22
 15 402 98 455 205 455 c 14
 835 455 l 22
 942 455 1025 402 1025 295 c 14
 1025 260 l 22
 1025 153 942 100 835 100 c 14
 205 100 l 22
 98 100 15 153 15 260 c 14
195 1025 m 14
 195 1060 l 22
 195 1167 278 1220 385 1220 c 14
 1015 1220 l 22
 1122 1220 1205 1167 1205 1060 c 14
 1205 1025 l 22
 1205 918 1122 865 1015 865 c 14
 385 865 l 22
 278 865 195 918 195 1025 c 14
796 1520 m 14
 826 1520 l 22
 933 1520 967 1437 942 1330 c 14
 804 730 l 22
 779 623 707 540 600 540 c 14
 570 540 l 22
 463 540 429 623 454 730 c 14
 592 1330 l 22
 617 1437 689 1520 796 1520 c 14
EndSplineSet
EndChar

StartChar: ae
Encoding: 230 230 379
Width: 1958
VWidth: 1920
Flags: HMW
LayerCount: 2
Fore
SplineSet
470 320 m 256
 455 256 482 235 530 235 c 256
 614 235 681 292 715 438 c 257
 880 328 l 257
 833 125 635 -35 334 -35 c 256
 65 -35 -82 55 -32 270 c 256
 12 461 157 575 507 615 c 256
 696 637 770 675 780 718 c 257
 778 538 l 257
 763 475 691 454 624 440 c 256
 542 424 488 400 470 320 c 256
674 258 m 265
 784 738 l 258
 793 778 780 805 725 805 c 256
 678 805 653 787 630 762 c 256
 560 687 511 648 374 648 c 258
 364 648 l 258
 217 648 179 753 243 862 c 256
 312 981 509 1085 755 1085 c 256
 1055 1085 1166 961 1104 693 c 258
 1008 278 l 273
 674 258 l 265
1810 199 m 260
 1708 75 1534 -35 1253 -35 c 260
 884 -35 766 138 838 448 c 262
 874 603 l 262
 943 903 1172 1085 1499 1085 c 260
 1816 1085 1962 907 1962 724 c 260
 1962 694 1956 657 1953 643 c 260
 1915 478 1820 435 1663 435 c 262
 979 435 l 261
 1019 605 l 261
 1479 605 l 261
 1507 747 1473 805 1400 805 c 260
 1333 805 1269 753 1241 633 c 262
 1192 418 l 262
 1157 268 1199 245 1276 245 c 260
 1338 245 1381 263 1407 282 c 260
 1469 328 1546 388 1673 388 c 262
 1684 388 l 262
 1816 388 1899 307 1810 199 c 260
EndSplineSet
EndChar

StartChar: paragraph
Encoding: 182 182 380
Width: 1510
VWidth: 1920
Flags: HMW
LayerCount: 2
Fore
SplineSet
1453 1075 m 1
 1170 -150 l 2
 1134 -307 1062 -390 955 -390 c 2
 925 -390 l 2
 818 -390 784 -307 820 -150 c 2
 1103 1075 l 1
 1023 1075 l 1
 740 -150 l 2
 704 -307 632 -390 525 -390 c 2
 505 -390 l 2
 398 -390 364 -307 400 -150 c 2
 527 400 l 1
 517 400 l 2
 260 400 56 548 130 868 c 2
 145 932 l 2
 219 1252 491 1400 748 1400 c 2
 1518 1400 l 2
 1645 1400 1696 1347 1671 1240 c 2
 1670 1235 l 2
 1645 1128 1550 1075 1463 1075 c 2
 1453 1075 l 1
EndSplineSet
EndChar

StartChar: guilsinglleft
Encoding: 8249 8249 381
Width: 630
Flags: HMW
LayerCount: 2
Fore
SplineSet
285 196 m 6
 141 349 l 6
 78 413 40 478 58 555 c 6
 60 565 l 6
 78 642 139 698 236 761 c 6
 446 894 l 6
 568 971 585 887 560 780 c 6
 555 760 l 6
 530 653 498 605 389 560 c 6
 377 555 l 261
 387 548 l 6
 460 493 481 437 456 330 c 6
 452 310 l 6
 427 203 360 116 285 196 c 6
EndSplineSet
EndChar

StartChar: guilsinglright
Encoding: 8250 8250 382
Width: 630
Flags: HW
LayerCount: 2
Fore
SplineSet
359 904 m 2
 503 751 l 2
 566 687 604 622 586 545 c 2
 584 535 l 2
 566 458 505 402 408 339 c 2
 198 206 l 2
 76 129 59 213 84 320 c 2
 88 340 l 2
 113 447 146 495 255 540 c 2
 267 545 l 257
 257 552 l 2
 184 607 163 663 188 770 c 2
 192 790 l 2
 217 897 284 984 359 904 c 2
EndSplineSet
EndChar

StartChar: mu
Encoding: 181 181 385
Width: 1255
VWidth: 1920
Flags: HW
LayerCount: 2
Fore
SplineSet
414 1080 m 258
 424 1080 l 258
 571 1080 645 997 604 820 c 258
 385 -130 l 258
 344 -307 232 -390 85 -390 c 258
 75 -390 l 258
 -72 -390 -146 -307 -105 -130 c 258
 114 820 l 258
 155 997 267 1080 414 1080 c 258
848 -30 m 258
 828 -30 l 258
 681 -30 617 53 658 230 c 258
 689 363 l 257
 685 390 l 257
 784 820 l 258
 825 997 932 1080 1079 1080 c 258
 1089 1080 l 258
 1236 1080 1315 997 1274 820 c 258
 1138 230 l 258
 1097 53 995 -30 848 -30 c 258
725 347 m 257
 670 107 569 -35 422 -35 c 256
 265 -35 242 77 314 387 c 258
 414 820 l 258
 455 997 267 1080 414 1080 c 258
 424 1080 l 258
 571 1080 645 997 604 820 c 258
 516 437 l 258
 493 337 501 295 558 295 c 256
 615 295 680 367 728 577 c 257
 725 347 l 257
EndSplineSet
EndChar

StartChar: Eth
Encoding: 208 208 387
Width: 1510
VWidth: 1920
Flags: HW
LayerCount: 2
Fore
SplineSet
10 695 m 14
 10 730 l 22
 10 837 93 890 200 890 c 14
 710 890 l 22
 817 890 900 837 900 730 c 14
 900 695 l 22
 900 588 817 535 710 535 c 14
 200 535 l 22
 93 535 10 588 10 695 c 14
EndSplineSet
Refer: 15 68 N 1 0 0 1 80 0 2
EndChar

StartChar: Dcroat
Encoding: 272 272 388
Width: 1510
VWidth: 1920
Flags: HW
LayerCount: 2
Fore
SplineSet
10 695 m 14
 10 730 l 22
 10 837 93 890 200 890 c 14
 710 890 l 22
 817 890 900 837 900 730 c 14
 900 695 l 22
 900 588 817 535 710 535 c 14
 200 535 l 22
 93 535 10 588 10 695 c 14
EndSplineSet
Refer: 15 68 N 1 0 0 1 80 0 2
EndChar

StartChar: thorn
Encoding: 254 254 389
Width: 1315
VWidth: 1920
Flags: HW
LayerCount: 2
Fore
SplineSet
512 1480 m 258
 522 1480 l 258
 669 1480 743 1397 702 1220 c 258
 390 -130 l 258
 349 -307 237 -390 90 -390 c 258
 80 -390 l 258
 -67 -390 -141 -307 -100 -130 c 258
 212 1220 l 258
 253 1397 365 1480 512 1480 c 258
506 633 m 257
 573 923 747 1085 1004 1085 c 256
 1271 1085 1387 943 1309 603 c 258
 1273 447 l 258
 1195 107 1013 -35 746 -35 c 256
 489 -35 389 127 456 417 c 257
 532 487 l 257
 507 377 537 305 614 305 c 256
 701 305 763 357 788 467 c 258
 815 583 l 258
 840 693 803 745 716 745 c 256
 639 745 575 673 550 563 c 257
 506 633 l 257
EndSplineSet
EndChar

StartChar: Thorn
Encoding: 222 222 390
Width: 1330
VWidth: 1920
Flags: HW
LayerCount: 2
Fore
SplineSet
868 1160 m 2
 1255 1160 1388 1012 1326 742 c 2
 1312 678 l 2
 1250 408 1047 260 660 260 c 2
 500 260 l 1
 493 230 l 2
 454 63 340 -30 193 -30 c 2
 183 -30 l 2
 36 -30 -36 63 3 230 c 2
 220 1170 l 2
 261 1347 373 1430 520 1430 c 2
 530 1430 l 2
 677 1430 751 1347 710 1170 c 2
 708 1160 l 1
 868 1160 l 2
558 510 m 1
 668 510 l 2
 785 510 834 558 855 648 c 2
 860 672 l 2
 881 762 854 810 737 810 c 2
 627 810 l 1
 558 510 l 1
EndSplineSet
EndChar

StartChar: divide
Encoding: 247 247 391
Width: 1380
VWidth: 2048
Flags: HW
LayerCount: 2
Fore
SplineSet
45 685 m 10
 45 700 l 18
 45 797 108 820 215 820 c 10
 1245 820 l 18
 1352 820 1415 797 1415 700 c 10
 1415 685 l 18
 1415 588 1352 565 1245 565 c 10
 215 565 l 18
 108 565 45 588 45 685 c 10
EndSplineSet
Refer: 1 46 S 1 0 0 1 490 920 2
Refer: 1 46 N 1 0 0 1 320 5 2
EndChar

StartChar: multiply
Encoding: 215 215 392
Width: 1060
VWidth: 1920
Flags: HW
LayerCount: 2
Fore
SplineSet
861 367 m 10
 835 346 l 18
 767 291 647 311 605 366 c 10
 253 824 l 18
 211 879 217 1003 287 1058 c 10
 314 1079 l 18
 384 1134 501 1114 543 1059 c 10
 895 601 l 18
 937 546 929 422 861 367 c 10
145 346 m 10
 128 367 l 18
 83 422 134 546 202 601 c 10
 765 1059 l 18
 833 1114 962 1134 1004 1079 c 10
 1020 1058 l 18
 1062 1003 1014 879 946 824 c 10
 383 366 l 18
 315 311 190 291 145 346 c 10
EndSplineSet
EndChar

StartChar: Oslash
Encoding: 216 216 393
Width: 1541
VWidth: 1920
Flags: HW
LayerCount: 2
Fore
SplineSet
1240.66992188 1473.26269531 m 2
 1249.33007812 1468.26269531 l 2
 1264.05273438 1459.76269531 1273.140625 1439.50390625 1254.640625 1407.4609375 c 2
 414.640625 -47.4609375 l 2
 396.140625 -79.50390625 374.052734375 -81.7626953125 359.330078125 -73.2626953125 c 2
 350.669921875 -68.2626953125 l 2
 335.947265625 -59.7626953125 326.859375 -39.50390625 345.359375 -7.4609375 c 2
 1185.359375 1447.4609375 l 2
 1203.859375 1479.50390625 1225.94726562 1481.76269531 1240.66992188 1473.26269531 c 2
EndSplineSet
Refer: 26 79 N 1 0 0 1 0 0 2
EndChar

StartChar: oslash
Encoding: 248 248 394
Width: 1245
VWidth: 1920
Flags: HW
LayerCount: 2
Fore
SplineSet
1010.66992188 1190.6796875 m 6
 1019.33007812 1185.6796875 l 6
 1034.05273438 1177.1796875 1043.125 1156.89355469 1024.640625 1124.87792969 c 6
 314.640625 -104.877929688 l 6
 296.140625 -136.920898438 274.052734375 -139.1796875 259.330078125 -130.6796875 c 6
 250.669921875 -125.6796875 l 6
 235.947265625 -117.1796875 226.859375 -96.9208984375 245.359375 -64.8779296875 c 6
 955.359375 1164.87792969 l 6
 973.84375 1196.89355469 995.947265625 1199.1796875 1010.66992188 1190.6796875 c 6
EndSplineSet
Refer: 52 111 N 1 0 0 1 0 0 2
EndChar

StartChar: germandbls
Encoding: 223 223 396
Width: 1560
VWidth: 1920
Flags: HW
LayerCount: 2
Fore
SplineSet
221 1088 m 2
 300 1432 570 1487 950 1487 c 0
 1363 1487 1502 1342 1463 1175 c 0
 1418 978 1268 935 1240 815 c 0
 1199 636 1565 663 1486 322 c 0
 1423 50 1125 -35 735 -35 c 0
 626 -35 557 16 582 125 c 2
 584 135 l 2
 609 244 702 295 811 295 c 0
 916 295 983 309 999 377 c 0
 1027 500 686 537 739 768 c 0
 779 940 928 978 949 1068 c 0
 963 1129 927 1160 855 1160 c 0
 783 1160 716 1131 695 1038 c 2
 503 210 l 2
 467 53 365 -30 208 -30 c 2
 203 -30 l 2
 46 -30 -18 53 18 210 c 2
 221 1088 l 2
EndSplineSet
EndChar

StartChar: eth
Encoding: 240 240 397
Width: 1314
VWidth: 1920
Flags: HW
LayerCount: 2
Fore
SplineSet
433 1140 m 14
 432 1144 l 22
 422 1182 470 1211 540 1241 c 14
 1126 1505 l 22
 1187 1531 1234 1538 1246 1506 c 14
 1248 1501 l 22
 1260 1468 1211 1430 1150 1404 c 14
 564 1139 l 22
 494 1109 443 1102 433 1140 c 14
715 785 m 260
 625 785 559 710 519 537 c 262
 510 497 l 262
 471 327 497 265 606 265 c 260
 723 265 763 342 793 472 c 262
 845 698 l 262
 904 954 729 1131 557 1257 c 4
 466 1323 460 1412 526 1486 c 6
 534 1495 l 6
 599 1568 727 1602 823 1540 c 4
 1123 1348 1404 1019 1313 623 c 262
 1293 537 l 262
 1217 207 984 -35 527 -35 c 260
 105 -35 -53 179 11 457 c 262
 36 567 l 262
 99 841 307 1085 604 1085 c 260
 811 1085 922 856 877 662 c 261
 793 472 l 261
 823 602 l 262
 856 745 795 785 715 785 c 260
EndSplineSet
EndChar

StartChar: dcroat
Encoding: 273 273 398
Width: 1278
VWidth: 1920
Flags: HW
LayerCount: 2
Fore
SplineSet
710 1220 m 14
 710 1255 l 22
 710 1352 783 1380 890 1380 c 14
 1460 1380 l 22
 1567 1380 1640 1352 1640 1255 c 14
 1640 1220 l 22
 1640 1123 1567 1095 1460 1095 c 14
 890 1095 l 22
 783 1095 710 1123 710 1220 c 14
EndSplineSet
Refer: 41 100 N 1 0 0 1 0 0 2
EndChar

StartChar: Hbar
Encoding: 294 294 399
Width: 1379
VWidth: 1920
Flags: HW
LayerCount: 2
Fore
SplineSet
60 1110 m 14
 60 1125 l 22
 60 1232 143 1285 250 1285 c 14
 1410 1285 l 22
 1517 1285 1600 1232 1600 1125 c 14
 1600 1110 l 22
 1600 1003 1517 950 1410 950 c 14
 250 950 l 22
 143 950 60 1003 60 1110 c 14
EndSplineSet
Refer: 19 72 N 1 0 0 1 0 0 2
EndChar

StartChar: hbar
Encoding: 295 295 400
Width: 1221
VWidth: 1920
Flags: HW
LayerCount: 2
Fore
SplineSet
30 1220 m 14
 30 1255 l 22
 30 1352 103 1380 210 1380 c 14
 780 1380 l 22
 887 1380 960 1352 960 1255 c 14
 960 1220 l 22
 960 1123 887 1095 780 1095 c 14
 210 1095 l 22
 103 1095 30 1123 30 1220 c 14
EndSplineSet
Refer: 45 104 N 1 0 0 1 0 0 2
EndChar

StartChar: Lslash
Encoding: 321 321 405
Width: 1101
VWidth: 1920
Flags: HW
LayerCount: 2
Fore
SplineSet
901 1155 m 6
 907 1148 l 6
 917 1136 911 1110 870 1089 c 6
 -2 642 l 6
 -26 630 -61 623 -71 635 c 6
 -76 641 l 6
 -86 653 -87 678 -60 692 c 6
 835 1149 l 6
 871 1167 891 1167 901 1155 c 6
EndSplineSet
Refer: 23 76 N 1 0 0 1 0 0 2
EndChar

StartChar: lslash
Encoding: 322 322 406
Width: 575
VWidth: 1920
Flags: HW
LayerCount: 2
Fore
SplineSet
880 1150 m 6
 886 1143 l 6
 896 1131 890 1105 849 1084 c 6
 -23 637 l 6
 -47 625 -82 618 -92 630 c 6
 -97 636 l 6
 -107 648 -108 673 -81 687 c 6
 814 1144 l 6
 850 1162 870 1162 880 1150 c 6
EndSplineSet
Refer: 49 108 N 1 0 0 1 0 0 2
EndChar

StartChar: eng
Encoding: 331 331 408
Width: 1255
VWidth: 1920
Flags: HW
LayerCount: 2
Fore
SplineSet
414 1080 m 262
 424 1080 l 262
 571 1080 640 997 599 820 c 262
 569 687 l 261
 572 660 l 261
 473 230 l 262
 432 53 320 -30 173 -30 c 262
 163 -30 l 262
 16 -30 -58 53 -17 230 c 262
 119 820 l 262
 160 997 267 1080 414 1080 c 262
1090 2 m 2
 1007 -355 720 -382 471 -346 c 0
 376 -332 314 -287 332 -210 c 2
 334 -200 l 2
 352 -123 406 -73 483 -75 c 0
 523 -77 588 -55 617 72 c 2
 742 613 l 2
 765 713 756 755 699 755 c 0
 642 755 577 683 529 473 c 1
 532 703 l 1
 587 943 778 1085 995 1085 c 0
 1222 1085 1315 973 1243 663 c 2
 1090 2 l 2
EndSplineSet
EndChar

StartChar: Eng
Encoding: 330 330 409
Width: 1380
VWidth: 1920
Flags: HW
LayerCount: 2
Fore
SplineSet
1350 1430 m 2
 1360 1430 l 2
 1507 1430 1521 1347 1485 1190 c 2
 1210 2 l 2
 1127 -355 840 -382 591 -346 c 0
 496 -332 434 -287 452 -210 c 2
 454 -200 l 2
 472 -123 526 -73 603 -75 c 0
 643 -77 708 -55 737 72 c 2
 749 124 l 1
 510 910 l 1
 353 230 l 2
 314 63 260 -30 113 -30 c 2
 103 -30 l 2
 -44 -30 -56 63 -17 230 c 2
 195 1150 l 2
 236 1327 361 1420 518 1420 c 2
 628 1420 l 2
 801 1420 882 1335 924 1160 c 2
 1018 769 l 1
 1115 1190 l 2
 1151 1347 1203 1430 1350 1430 c 2
EndSplineSet
EndChar

StartChar: oe
Encoding: 339 339 410
Width: 1998
VWidth: 1920
Flags: HW
LayerCount: 2
Fore
SplineSet
8 448 m 258
 44 603 l 258
 111 893 363 1085 720 1085 c 256
 1097 1085 1191 893 1124 603 c 258
 1088 448 l 258
 1021 158 839 -35 462 -35 c 256
 105 -35 -59 158 8 448 c 258
497 418 m 258
 469 298 490 245 577 245 c 256
 664 245 709 298 737 418 c 258
 786 633 l 258
 814 753 793 805 706 805 c 256
 619 805 574 753 546 633 c 258
 497 418 l 258
1850 199 m 256
 1748 75 1574 -35 1293 -35 c 256
 924 -35 806 138 878 448 c 258
 914 603 l 258
 983 903 1212 1085 1539 1085 c 256
 1856 1085 2002 907 2002 724 c 256
 2002 694 1996 657 1993 643 c 256
 1955 478 1860 435 1703 435 c 258
 1019 435 l 257
 1059 605 l 257
 1519 605 l 257
 1547 747 1513 805 1440 805 c 256
 1373 805 1309 753 1281 633 c 258
 1232 418 l 258
 1197 268 1239 245 1316 245 c 256
 1378 245 1421 263 1447 282 c 256
 1509 328 1586 388 1713 388 c 258
 1724 388 l 258
 1856 388 1939 307 1850 199 c 256
EndSplineSet
EndChar

StartChar: OE
Encoding: 338 338 411
Width: 2110
VWidth: 1920
Flags: HW
LayerCount: 2
Fore
SplineSet
928 1400 m 258
 1553 1400 l 258
 1560 1400 1533 1397 1531 1390 c 262
 1212 10 l 262
 1210 3 1237 0 1230 0 c 258
 605 0 l 258
 191 0 -17 231 72 617 c 258
 111 782 l 258
 200 1168 474 1400 928 1400 c 258
887 1050 m 258
 733 1050 652 960 613 792 c 258
 570 607 l 258
 531 439 572 350 726 350 c 258
 831 350 l 257
 992 1050 l 257
 887 1050 l 258
EndSplineSet
Refer: 16 69 N 1 0 0 1 800 0 2
EndChar

StartChar: Tbar
Encoding: 358 358 413
Width: 1309
VWidth: 1920
Flags: HW
LayerCount: 2
Fore
SplineSet
210 645 m 14
 210 650 l 22
 210 737 283 765 390 765 c 14
 980 765 l 22
 1087 765 1160 737 1160 650 c 14
 1160 645 l 22
 1160 558 1087 530 980 530 c 14
 390 530 l 22
 283 530 210 558 210 645 c 14
EndSplineSet
Refer: 31 84 N 1 0 0 1 0 0 2
EndChar

StartChar: tbar
Encoding: 359 359 414
Width: 792
VWidth: 1920
Flags: HW
LayerCount: 2
Fore
SplineSet
-5 575 m 14
 -5 580 l 22
 -5 667 68 695 175 695 c 14
 575 695 l 22
 682 695 755 667 755 580 c 14
 755 575 l 22
 755 488 682 460 575 460 c 14
 175 460 l 22
 68 460 -5 488 -5 575 c 14
EndSplineSet
Refer: 57 116 N 1 0 0 1 0 0 2
EndChar

StartChar: florin
Encoding: 402 402 415
Width: 748
VWidth: 1920
Flags: HW
LayerCount: 2
Fore
SplineSet
665 815 m 10
 270 815 l 18
 163 815 80 843 80 930 c 10
 80 935 l 18
 80 1022 163 1050 270 1050 c 10
 665 1050 l 18
 772 1050 855 1022 855 935 c 10
 855 930 l 18
 855 843 772 815 665 815 c 10
282 1194 m 2
 336 1426 565 1461 749 1461 c 0
 1048 1461 1098.9609375 1312.43847656 1086 1237 c 0
 1068.21777344 1133.49707031 1017 1090 930 1090 c 2
 927 1090 l 2
 880 1090 849.833545375 1122.85231036 850 1177 c 0
 850.107421875 1211.94433594 836 1227 817 1227 c 0
 769 1227 735 1115 711 1010 c 2
 692 920 l 2
 690 913 688 910 681 910 c 2
 227 910 l 2
 220 910 218 913 220 920 c 2
 282 1194 l 2
482 18 m 2
 405.807740783 -309.061095243 135 -359 -49 -359 c 0
 -348 -359 -368.9609375 -210.438476562 -356 -135 c 0
 -338.217773438 -31.4970703125 -297 12 -210 12 c 2
 -207 12 l 2
 -150 12 -109.833984375 -20.8525390625 -110 -75 c 0
 -110.107421875 -109.944335938 -96 -125 -77 -125 c 0
 -29 -125 4.80628483388 -12.724224219 29 92 c 2
 239 1001 l 2
 241 1008 243 1011 250 1011 c 2
 704 1011 l 2
 711 1011 713 1008 711 1001 c 2
 482 18 l 2
EndSplineSet
EndChar

StartChar: uni0394
Encoding: 916 916 430
Width: 1445
VWidth: 1920
Flags: HW
LayerCount: 2
Fore
SplineSet
51 0 m 2
 -55 0 -98 76 -29 195 c 2
 545 1190 l 2
 614 1309 734 1400 871 1400 c 2
 981 1400 l 2
 1120 1400 1197 1307 1211 1190 c 2
 1333 205 l 2
 1347 93 1266 0 1123 0 c 6
 51 0 l 2
376 250 m 1
 833 250 l 1
 766 978 l 1
 376 250 l 1
EndSplineSet
EndChar

StartChar: uni03A9
Encoding: 937 937 431
Width: 1690
VWidth: 1920
Flags: HW
LayerCount: 2
Fore
SplineSet
1017 451 m 0
 1103 532 1160 608 1195 758 c 2
 1210 823 l 2
 1249 991 1172 1095 978 1095 c 0
 784 1095 659 991 620 823 c 2
 605 758 l 2
 570 607 595 531 644 450 c 0
 687 378 730 322 704 211 c 2
 703 210 l 2
 678 103 602 0 465 0 c 2
 95 0 l 2
 -12 0 -83 53 -58 160 c 2
 -50 195 l 2
 -25 302 70 355 177 355 c 2
 372 355 l 1
 195 462 79 643 126 848 c 2
 134 883 l 2
 223 1269 574 1435 1056 1435 c 0
 1538 1435 1813 1269 1724 883 c 2
 1716 848 l 2
 1669 643 1466 462 1240 355 c 1
 1437 355 l 2
 1544 355 1615 302 1590 195 c 2
 1582 160 l 2
 1557 53 1462 0 1355 0 c 2
 985 0 l 2
 848 0 818 103 843 210 c 2
 844 211 l 2
 870 322 938 376 1017 451 c 0
EndSplineSet
EndChar

StartChar: pi
Encoding: 960 960 432
Width: 1515
VWidth: 1920
Flags: HW
LayerCount: 2
Fore
SplineSet
777 990 m 2
 596 210 l 2
 560 53 458 -30 301 -30 c 2
 291 -30 l 2
 134 -30 70 53 106 210 c 2
 287 990 l 2
 289 997 292 1000 299 1000 c 2
 769 1000 l 2
 776 1000 779 997 777 990 c 2
1464 190 m 258
 1462 180 l 258
 1440 83 1367 2 1208 -8 c 256
 862 -30 705 44 776 352 c 258
 868 750 l 258
 909 927 1023 1020 1170 1020 c 258
 1175 1020 l 258
 1322 1020 1394 927 1353 750 c 258
 1277 422 l 258
 1252 315 1335 325 1366 326 c 256
 1442 328 1486 287 1464 190 c 258
60 855 m 14
 60 890 l 22
 60 997 143 1050 250 1050 c 14
 1400 1050 l 22
 1507 1050 1590 997 1590 890 c 14
 1590 855 l 22
 1590 748 1507 695 1400 695 c 14
 250 695 l 22
 143 695 60 748 60 855 c 14
EndSplineSet
EndChar

StartChar: minute
Encoding: 8242 8242 433
Width: 570
VWidth: 1920
Flags: HW
LayerCount: 2
Fore
SplineSet
227 910 m 2
 216 910 l 2
 159 910 152 964 173 1040 c 2
 247 1310 l 2
 277 1417 400 1450 507 1450 c 2
 527 1450 l 2
 684 1450 730 1362 631 1260 c 2
 416 1040 l 2
 348 970 284 910 227 910 c 2
EndSplineSet
EndChar

StartChar: Euro
Encoding: 8364 8364 435
Width: 1555
VWidth: 1920
Flags: HW
LayerCount: 2
Fore
SplineSet
-40 555 m 10
 -40 560 l 18
 -40 637 13 670 120 670 c 10
 840 670 l 18
 947 670 1000 637 1000 560 c 10
 1000 555 l 18
 1000 478 947 445 840 445 c 10
 120 445 l 18
 13 445 -40 478 -40 555 c 10
40 825 m 14
 40 830 l 22
 40 907 93 940 200 940 c 14
 920 940 l 22
 1027 940 1080 907 1080 830 c 14
 1080 825 l 22
 1080 748 1027 715 920 715 c 14
 200 715 l 22
 93 715 40 748 40 825 c 14
1412 328 m 256
 1338 207 1124 -35 687 -35 c 256
 200 -35 55 238 143 618 c 258
 181 783 l 258
 269 1163 539 1435 1026 1435 c 256
 1503 1435 1560 1194 1567 1133 c 256
 1576 1059 1496 993 1369 993 c 258
 1360 993 l 258
 1233 993 1202 1015 1177 1053 c 256
 1163 1074 1115 1095 1008 1095 c 256
 831 1095 727 983 683 793 c 258
 640 608 l 258
 596 418 628 305 825 305 c 256
 932 305 1020 343 1061 393 c 256
 1118 463 1146 488 1273 488 c 258
 1283 488 l 258
 1410 488 1473 428 1412 328 c 256
EndSplineSet
EndChar

StartChar: uni2116
Encoding: 8470 8470 436
Width: 2180
VWidth: 1920
Flags: HW
LayerCount: 2
Fore
SplineSet
1340 125 m 14
 1340 130 l 22
 1340 227 1413 255 1520 255 c 14
 1870 255 l 22
 1977 255 2050 227 2050 130 c 14
 2050 125 l 22
 2050 28 1977 0 1870 0 c 14
 1520 0 l 22
 1413 0 1340 28 1340 125 c 14
EndSplineSet
Refer: 132 8304 N 1 0 0 1 1370 -295 2
Refer: 25 78 N 1 0 0 1 0 0 2
EndChar

StartChar: trademark
Encoding: 8482 8482 437
Width: 1924
VWidth: 1920
Flags: HW
LayerCount: 2
Fore
SplineSet
370 1400 m 258
 880 1400 l 258
 986 1400 1022 1362 1007 1298 c 258
 1005 1292 l 258
 990 1228 938 1190 832 1190 c 258
 724 1190 l 257
 610 698 l 258
 585 592 518 542 430 542 c 258
 424 542 l 258
 336 542 291 592 316 698 c 258
 430 1190 l 257
 322 1190 l 258
 216 1190 180 1228 195 1292 c 258
 197 1298 l 258
 212 1362 264 1400 370 1400 c 258
1191 1058 m 257
 1103 674 l 258
 1083 586 1028 542 970 542 c 258
 964 542 l 258
 906 542 873 586 893 674 c 258
 1025 1250 l 258
 1048 1350 1124 1406 1248 1406 c 258
 1260 1406 l 258
 1390 1406 1439 1357 1449 1256 c 258
 1478 973 l 257
 1642 1244 l 258
 1712 1359 1790 1409 1890 1409 c 258
 1926 1409 l 258
 2038 1409 2081 1350 2059 1256 c 258
 1930 698 l 258
 1907 598 1844 542 1756 542 c 258
 1750 542 l 258
 1662 542 1625 598 1648 698 c 258
 1731 1058 l 257
 1510 686 l 258
 1463 608 1425 565 1355 565 c 258
 1353 565 l 258
 1285 565 1259 608 1247 686 c 258
 1191 1058 l 257
EndSplineSet
EndChar

StartChar: partialdiff
Encoding: 8706 8706 438
Width: 1314
VWidth: 1920
Flags: HW
LayerCount: 2
Fore
SplineSet
669 585 m 260
 589 585 522 550 503 467 c 262
 494 427 l 262
 476 347 529 315 618 315 c 260
 695 315 765 352 788 452 c 262
 845 698 l 262
 904 954 699 1078 517 1170 c 4
 440 1209 419 1317 483 1405 c 6
 491 1415 l 6
 555 1503 667 1530 742 1495 c 4
 1119 1319 1407 1029 1313 623 c 262
 1293 537 l 262
 1217 207 984 -35 527 -35 c 260
 135 -35 -75 89 -13 357 c 262
 13 467 l 262
 74 731 261 885 618 885 c 260
 855 885 919 756 874 562 c 261
 791 462 l 261
 795 482 l 262
 812 555 739 585 669 585 c 260
EndSplineSet
EndChar

StartChar: summation
Encoding: 8721 8721 439
Width: 1550
VWidth: 1920
Flags: HW
LayerCount: 2
Fore
SplineSet
1078 295 m 2
 790 -10 l 1
 1166 -10 l 2
 1323 -10 1384 -63 1359 -170 c 2
 1352 -200 l 2
 1327 -307 1242 -360 1085 -360 c 2
 75 -360 l 6
 -82 -360 -27 -248 46 -170 c 6
 692 520 l 1
 364 1210 l 6
 327 1288 324 1400 481 1400 c 6
 1491 1400 l 2
 1648 1400 1709 1347 1684 1240 c 2
 1677 1210 l 2
 1652 1103 1567 1050 1410 1050 c 2
 1034 1050 l 1
 1181 745 l 2
 1255 592 1223 448 1078 295 c 2
EndSplineSet
EndChar

StartChar: minus
Encoding: 8722 8722 440
Width: 1170
Flags: HW
LayerCount: 2
Fore
SplineSet
100 485 m 14
 100 520 l 22
 100 627 183 680 290 680 c 14
 880 680 l 22
 987 680 1070 627 1070 520 c 14
 1070 485 l 22
 1070 378 987 325 880 325 c 14
 290 325 l 22
 183 325 100 378 100 485 c 14
EndSplineSet
EndChar

StartChar: integral
Encoding: 8747 8747 441
Width: 775
VWidth: 1920
Flags: HW
LayerCount: 2
Fore
SplineSet
495 2 m 6
 412 -355 129 -382 -120 -346 c 0
 -215 -332 -277 -287 -259 -210 c 2
 -257 -200 l 2
 -239 -123 -185 -73 -108 -75 c 0
 -68 -77 -3 -55 26 72 c 2
 284 1188 l 2
 339 1425 581 1481 889 1435 c 0
 965 1424 992 1397 972 1310 c 2
 970 1300 l 2
 950 1213 904 1190 823 1166 c 0
 784 1155 757 1133 742 1068 c 2
 495 2 l 6
EndSplineSet
EndChar

StartChar: radical
Encoding: 8730 8730 443
Width: 1305
VWidth: 1920
Flags: HMW
LayerCount: 2
Fore
SplineSet
352 1050 m 6
 479 1050 536 1030 554 920 c 6
 607 598 l 5
 987 1430 l 6
 1034 1532 1100 1620 1257 1620 c 6
 1262 1620 l 6
 1419 1620 1450 1527 1396 1430 c 6
 623 47 l 6
 574 -42 486 -68 460 7 c 6
 221 700 l 5
 210 700 l 6
 103 700 52 753 77 860 c 6
 81 880 l 6
 106 987 213 1050 340 1050 c 6
 352 1050 l 6
EndSplineSet
EndChar

StartChar: infinity
Encoding: 8734 8734 444
Width: 1432
Flags: HMW
LayerCount: 2
Fore
SplineSet
350 311 m 4
 140 311 41 481 86 675 c 0
 131 869 307 1035 517 1035 c 4
 731 1035 770 935 791 835 c 1
 858 935 931 1035 1155 1035 c 4
 1365 1035 1463 869 1418 675 c 0
 1373 481 1198 311 988 311 c 4
 764 311 715 401 716 511 c 1
 645 401 564 311 350 311 c 4
461 567 m 0
 529 567 597 601 668 675 c 1
 635 747 578 781 510 781 c 0
 430 781 380 745 364 675 c 0
 348 607 381 567 461 567 c 0
995 567 m 4
 1075 567 1124 607 1140 675 c 4
 1156 745 1124 781 1044 781 c 4
 986 781 905 747 838 675 c 1
 851 603 937 567 995 567 c 4
EndSplineSet
EndChar

StartChar: product
Encoding: 8719 8719 445
Width: 1420
VWidth: 1920
Flags: HW
LayerCount: 2
Fore
SplineSet
1293 1400 m 2
 1460 1400 1532 1307 1493 1140 c 2
 1278 210 l 2
 1242 53 1170 -30 1013 -30 c 2
 943 -30 l 2
 786 -30 752 53 788 210 c 2
 982 1050 l 257
 682 1050 l 257
 488 210 l 2
 452 53 380 -30 223 -30 c 2
 153 -30 l 2
 -4 -30 -38 53 -2 210 c 2
 213 1140 l 18
 252 1310 366 1400 533 1400 c 10
 1293 1400 l 2
EndSplineSet
EndChar

StartChar: uni2219
Encoding: 8729 8729 446
Width: 548
Flags: HW
LayerCount: 2
Fore
SplineSet
90 675 m 4
 90 807 182 900 314 900 c 4
 446 900 538 807 538 675 c 4
 538 543 454 450 322 450 c 4
 190 450 90 543 90 675 c 4
EndSplineSet
EndChar

StartChar: approxequal
Encoding: 8776 8776 447
Width: 1180
VWidth: 1920
Flags: HW
LayerCount: 2
Fore
SplineSet
486 624 m 256
 434 624 395 597 371 567 c 0
 335 523 310 488 233 488 c 2
 223 488 l 2
 146 488 105 532 130 607 c 0
 170 726 286 889 487 889 c 256
 616 889 664 767 746 767 c 256
 818 767 851 805 873 833 c 4
 902 870 972 903 1039 903 c 2
 1048 903 l 2
 1125 903 1161 850 1128 773 c 0
 1079 657 965 502 745 502 c 256
 616 502 588 624 486 624 c 256
426 234 m 256
 374 234 335 207 311 177 c 0
 275.485351562 132.607421875 220 98 143 98 c 2
 133 98 l 2
 56 98 15 142 40 217 c 0
 80 336 226 499 427 499 c 256
 556 499 604 377 686 377 c 256
 758 377 791 415 813 443 c 0
 842 480 882 513 949 513 c 2
 958 513 l 2
 1035 513 1071 460 1038 383 c 0
 989 267 905 112 685 112 c 256
 556 112 528 234 426 234 c 256
EndSplineSet
EndChar

StartChar: notequal
Encoding: 8800 8800 448
Width: 1180
VWidth: 1920
Flags: HW
LayerCount: 2
Fore
SplineSet
1137 950 m 6
 1139 948 l 6
 1151 933 1133 899 1102 874 c 6
 112 70 l 6
 81 45 49 30 34 50 c 6
 32 52 l 6
 17 72 38 101 69 126 c 6
 1059 930 l 6
 1090 955 1125 965 1137 950 c 6
EndSplineSet
Refer: 83 61 N 1 0 0 1 0 0 2
EndChar

StartChar: lessequal
Encoding: 8804 8804 449
Width: 1010
VWidth: 1920
Flags: HW
LayerCount: 2
Fore
SplineSet
-50 150 m 14
 -50 155 l 22
 -50 262 33 305 140 305 c 14
 660 305 l 22
 767 305 850 262 850 155 c 14
 850 150 l 22
 850 43 767 0 660 0 c 14
 140 0 l 22
 33 0 -50 43 -50 150 c 14
EndSplineSet
Refer: 84 60 N 1 0 0 1 0 230 2
EndChar

StartChar: greaterequal
Encoding: 8805 8805 450
Width: 1010
VWidth: 1920
Flags: HW
LayerCount: 2
Fore
SplineSet
-50 150 m 14
 -50 155 l 22
 -50 262 33 305 140 305 c 14
 660 305 l 22
 767 305 850 262 850 155 c 14
 850 150 l 22
 850 43 767 0 660 0 c 14
 140 0 l 22
 33 0 -50 43 -50 150 c 14
EndSplineSet
Refer: 85 62 N 1 0 0 1 0 230 2
EndChar

StartChar: lozenge
Encoding: 9674 9674 451
Width: 1150
Flags: HW
LayerCount: 2
Fore
SplineSet
362 220 m 2
 182 522 l 2
 119 627 154 796 269 902 c 2
 586 1192 l 2
 720 1315 825 1325 898 1192 c 2
 1057 902 l 2
 1114 798 1071 625 970 522 c 2
 674 220 l 2
 552 96 431 105 362 220 c 2
566 454 m 1
 757 712 l 1
 685 970 l 1
 481 712 l 1
 566 454 l 1
EndSplineSet
EndChar

StartChar: uniF8EA
Encoding: 63722 63722 452
Width: 1212
VWidth: 1920
Flags: HW
LayerCount: 2
Fore
SplineSet
332 1400 m 258
 638 1400 l 258
 702 1400 723 1378 714 1339 c 258
 713 1335 l 258
 704 1296 673 1274 609 1274 c 258
 545 1274 l 257
 477 979 l 258
 462 915 421 885 368 885 c 258
 365 885 l 258
 312 885 285 915 300 979 c 258
 368 1274 l 257
 303 1274 l 258
 239 1274 218 1296 227 1335 c 258
 228 1339 l 258
 237 1378 268 1400 332 1400 c 258
825 1195 m 257
 772 964 l 258
 760 911 727 885 692 885 c 258
 689 885 l 258
 654 885 634 911 646 964 c 258
 725 1310 l 258
 739 1370 784 1403 859 1403 c 258
 866 1403 l 258
 944 1403 974 1374 980 1313 c 258
 997 1144 l 257
 1096 1306 l 258
 1138 1375 1184 1405 1244 1405 c 258
 1266 1405 l 258
 1333 1405 1359 1370 1346 1313 c 258
 1269 979 l 258
 1255 919 1217 885 1164 885 c 258
 1160 885 l 258
 1107 885 1085 919 1099 979 c 258
 1149 1195 l 257
 1016 971 l 258
 988 924 966 899 924 899 c 258
 923 899 l 258
 882 899 865 924 858 971 c 258
 825 1195 l 257
EndSplineSet
EndChar

StartChar: uniF8E8
Encoding: 63720 63720 453
Width: 936
Flags: HW
LayerCount: 2
Fore
SplineSet
565 1150 m 261
 540 1038 l 261
 576 1038 l 262
 622 1038 637 1061 644 1093 c 262
 645 1094 l 262
 652 1123 647 1150 601 1150 c 262
 565 1150 l 261
667 1276 m 262
 813 1276 851 1208 832 1125 c 262
 830 1117 l 262
 810 1031 716 980 598 980 c 261
 603 1002 l 261
 731 1002 804 991 784 905 c 262
 783 901 l 262
 779 882 780 865 781 854 c 260
 782 844 783 828 779 809 c 262
 778 807 l 262
 771 776 749 761 696 761 c 262
 685 761 l 262
 630 761 594 771 592 821 c 260
 591 840 590 859 597 890 c 262
 601 905 l 262
 608 934 600 948 562 948 c 262
 519 948 l 261
 498 858 l 262
 483 794 446 761 390 761 c 262
 386 761 l 262
 330 761 307 794 322 858 c 262
 393 1164 l 262
 410 1238 456 1276 530 1276 c 262
 667 1276 l 262
1001 1016 m 4
 948 786 715 599 485 599 c 4
 255 599 112 786 165 1016 c 4
 218 1246 448 1435 678 1435 c 4
 908 1435 1054 1246 1001 1016 c 4
950 1016 m 4
 997 1219 870 1384 667 1384 c 4
 464 1384 263 1219 216 1016 c 4
 169 813 294 650 497 650 c 4
 700 650 903 813 950 1016 c 4
EndSplineSet
EndChar

StartChar: uniF8E9
Encoding: 63721 63721 454
Width: 936
Flags: HW
LayerCount: 2
Fore
SplineSet
795 920 m 260
 758 836 670 753 527 753 c 260
 352 753 299 851 331 988 c 262
 345 1048 l 262
 377 1185 474 1282 649 1282 c 260
 792 1282 824 1210 834 1148 c 260
 842 1098 806 1069 771 1069 c 262
 753 1069 l 262
 722 1069 709 1089 705 1112 c 260
 700 1140 677 1160 639 1160 c 260
 586 1160 543 1127 526 1051 c 262
 511 985 l 262
 493 906 517 875 577 875 c 260
 626 875 645 890 667 931 c 260
 680 954 712 992 750 992 c 262
 761 992 l 262
 807 992 812 958 795 920 c 260
1001 1016 m 4
 948 786 716 599 486 599 c 4
 256 599 111 786 164 1016 c 4
 217 1246 449 1435 679 1435 c 4
 909 1435 1054 1246 1001 1016 c 4
949 1016 m 4
 996 1219 870 1384 667 1384 c 4
 464 1384 263 1219 216 1016 c 4
 169 813 295 650 498 650 c 4
 701 650 902 813 949 1016 c 4
EndSplineSet
EndChar

StartChar: uni1E9E
Encoding: 7838 7838 457
Width: 1527
VWidth: 1920
Flags: HW
LayerCount: 2
Fore
SplineSet
182 1005 m 2
 248 1289 568 1434 958 1434 c 0
 1239 1434 1392 1309 1454 1237 c 4
 1525 1155 1483 1001 1382 914 c 6
 1221 775 l 1
 1320 686 1524 569 1468 328 c 0
 1405 54 1190 -35 871 -35 c 0
 773 -35 687 -22 645 -11 c 0
 566 10 491 76 516 185 c 2
 518 195 l 2
 544 306 626 350 719 322 c 0
 776 305 814 297 876 297 c 0
 941 297 977 324 988 371 c 0
 1006 448 899 535 765 620 c 0
 667 682 728 752 808 837 c 2
 1003 1046 l 1
 985 1068 934 1092 876 1092 c 0
 707 1092 675 1038 651 935 c 2
 495 260 l 2
 447 53 355 -30 198 -30 c 2
 173 -30 l 2
 16 -30 -38 53 10 260 c 2
 182 1005 l 2
EndSplineSet
EndChar
